<svg xmlns="http://www.w3.org/2000/svg" xmlns:xlink="http://www.w3.org/1999/xlink" version="1.1" x="0px" y="0px" viewBox="0 0 100 125" enable-background="new 0 0 100 100" xml:space="preserve"><rect x="38.2592773" y="26.0058594" width="10.5029297" height="35.0097656"/><rect x="54.0136719" y="36.5087891" width="10.5029297" height="24.5068359"/><rect x="22.5048828" y="47.0117188" width="10.5029297" height="14.0039063"/><path d="M82.0214844,43.5107422C82.0214844,22.2416992,64.7797852,5,43.5107422,5S5,22.2416992,5,43.5107422  s17.2416992,38.5107422,38.5107422,38.5107422c9.3740234,0,17.9599609-3.3549805,24.6376953-8.9223633L90.0493164,95L95,90.0493164  L73.0996094,68.1484375C78.6665039,61.4707031,82.0214844,52.8847656,82.0214844,43.5107422z M43.5107422,75.0195313  c-17.3740234,0-31.5087891-14.1347656-31.5087891-31.5087891s14.1347656-31.5087891,31.5087891-31.5087891  s31.5092773,14.1347656,31.5092773,31.5087891S60.8847656,75.0195313,43.5107422,75.0195313z"/></svg>