<?xml version="1.0" standalone="no"?>
<!DOCTYPE svg PUBLIC "-//W3C//DTD SVG 20010904//EN"
 "http://www.w3.org/TR/2001/REC-SVG-20010904/DTD/svg10.dtd">
<svg version="1.0" xmlns="http://www.w3.org/2000/svg"
 width="1024.000000pt" height="1024.000000pt" viewBox="0 0 1024.000000 1024.000000"
 preserveAspectRatio="xMidYMid meet">

<g transform="translate(0.000000,1024.000000) scale(0.100000,-0.100000)"
fill="#000000" stroke="none">
<path d="M4873 9785 c-58 -16 -145 -57 -182 -86 -14 -11 -40 -19 -61 -19 -104
0 -276 -52 -379 -114 -31 -19 -94 -51 -140 -70 -193 -81 -278 -197 -311 -422
l-12 -82 -57 -4 c-74 -5 -112 -32 -148 -106 -28 -56 -28 -60 -30 -252 -2 -220
9 -295 56 -397 36 -75 115 -162 188 -206 50 -30 52 -33 69 -100 22 -89 83
-215 130 -267 40 -44 127 -100 156 -100 17 0 20 -12 32 -139 3 -30 2 -50 -2
-45 -5 5 -25 30 -45 55 -20 26 -58 61 -84 78 -47 31 -47 31 -67 12 -13 -14
-20 -37 -23 -78 l-4 -58 20 25 c50 63 53 66 47 47 -4 -11 -2 -16 5 -12 5 4 7
15 4 26 -9 29 8 23 55 -19 l43 -38 -25 -27 c-34 -37 -91 -144 -79 -151 11 -7
17 1 65 82 21 34 41 62 45 62 28 0 58 -72 67 -166 6 -56 5 -64 -9 -58 -9 3
-31 -2 -51 -11 -35 -17 -62 -13 -50 7 4 6 2 8 -4 4 -5 -3 -13 0 -15 6 -4 8 -6
9 -6 2 -1 -7 7 -22 17 -34 18 -22 21 -22 70 -10 28 8 54 12 56 9 3 -2 12 -55
21 -117 17 -112 17 -113 -5 -158 -13 -27 -33 -49 -47 -55 -38 -14 -17 -32 32
-27 l43 5 -15 -36 c-22 -51 -13 -156 17 -209 27 -49 33 -49 21 -1 -17 64 -22
119 -11 119 5 0 10 -8 10 -18 0 -10 11 -50 24 -88 125 -369 407 -545 876 -547
260 -1 448 76 611 251 110 118 168 235 199 402 l17 95 8 -48 c7 -45 3 -102
-11 -144 -3 -10 4 -4 15 13 34 50 46 130 29 195 l-14 54 48 -3 c26 -2 48 -1
48 2 0 4 -15 19 -32 35 l-33 29 -3 152 -3 152 48 -7 c38 -5 52 -3 62 9 11 13
10 15 -9 11 -24 -5 -52 4 -45 14 2 4 -9 5 -26 3 l-29 -4 0 76 c0 65 4 83 26
117 14 23 29 37 34 33 23 -24 80 -130 75 -142 -2 -7 0 -10 5 -7 6 3 10 1 10
-6 0 -10 3 -10 11 -2 14 14 -19 92 -61 145 -17 20 -30 40 -30 45 0 11 63 60
75 59 6 -1 9 -4 7 -9 -1 -4 3 -6 9 -5 7 2 21 -16 33 -39 11 -23 24 -42 28 -43
3 0 5 27 4 61 -3 70 -21 95 -59 85 -26 -6 -107 -79 -146 -131 -12 -16 -20 -22
-17 -12 3 10 6 60 6 111 l0 93 61 18 c57 17 62 18 89 2 15 -9 32 -17 38 -17
16 0 63 139 69 205 3 40 0 74 -10 102 l-14 42 44 47 c84 87 133 182 133 256 0
45 -12 71 -47 110 -24 25 -24 26 -5 32 26 9 47 42 62 96 28 104 -40 209 -182
280 -44 22 -87 40 -94 40 -18 0 -19 -2 16 72 67 142 16 262 -130 305 -53 15
-113 12 -171 -12 -13 -5 -15 3 -11 53 4 54 2 62 -27 94 -36 42 -120 88 -216
119 -59 19 -95 23 -221 25 -147 2 -153 3 -216 33 -101 48 -292 108 -408 129
-103 18 -105 19 -80 35 52 34 122 58 200 69 71 11 90 10 148 -5 101 -27 152
-74 197 -182 17 -42 25 -52 25 -35 0 39 -44 121 -86 162 -60 57 -124 81 -224
85 -53 2 -104 -3 -137 -12z m-858 -424 c-47 -65 -81 -159 -95 -262 -19 -134
-17 -129 -51 -129 -17 0 -32 6 -35 15 -11 27 27 179 62 252 32 67 120 173 144
173 6 0 -6 -22 -25 -49z m-222 -420 c3 -15 -8 -31 -44 -61 -55 -46 -132 -149
-154 -207 -15 -38 -15 -37 -11 48 7 155 66 235 177 238 18 1 28 -5 32 -18z
m915 -148 c11 -10 25 -40 32 -68 28 -120 75 -150 230 -150 141 1 197 18 416
127 151 75 192 91 243 95 82 8 101 -8 101 -85 0 -94 30 -127 196 -210 55 -28
106 -57 113 -66 16 -19 12 -69 -18 -206 -12 -56 -33 -243 -51 -460 -44 -525
-50 -564 -110 -667 -35 -62 -98 -108 -132 -99 -13 3 -34 22 -47 41 -31 46 -61
61 -141 69 -36 4 -101 19 -146 32 -79 25 -82 25 -141 10 -76 -20 -142 -20
-213 -1 -104 28 -145 18 -248 -58 -34 -25 -76 -48 -92 -51 -17 -3 -44 -9 -60
-12 -17 -3 -41 -17 -54 -31 -30 -32 -54 -27 -117 21 -90 68 -120 159 -164 491
-14 105 -32 236 -41 293 l-17 102 31 68 c49 106 73 181 79 253 7 79 -7 128
-47 166 l-29 27 25 64 c58 155 134 254 227 298 64 29 145 33 175 7z m1562
-1254 c17 -31 7 -33 -20 -4 -19 20 -20 25 -7 25 9 0 21 -9 27 -21z m-2250 -25
c0 -11 -42 -65 -47 -61 -7 8 26 67 37 67 6 0 10 -3 10 -6z m1585 -608 c-33
-99 -117 -196 -214 -246 -45 -23 -59 -24 -191 -20 -60 2 -90 -3 -151 -24 -87
-30 -106 -31 -155 -11 -56 23 -109 71 -151 134 -44 64 -86 185 -81 230 l3 30
70 -31 c59 -27 85 -32 167 -36 96 -4 98 -4 162 32 69 39 69 39 154 -2 46 -21
62 -24 130 -20 78 4 169 36 217 76 11 9 -5 -9 -35 -41 -71 -75 -47 -74 28 1
l57 57 3 -39 c2 -22 -4 -62 -13 -90z"/>
<path d="M5469 8331 c-66 -22 -91 -51 -105 -125 -7 -39 -7 -39 22 -33 124 27
169 30 234 13 74 -19 124 -55 158 -112 l24 -39 -6 48 c-11 90 -78 184 -160
225 -50 25 -127 36 -167 23z"/>
<path d="M5332 8269 c-20 -52 -21 -71 -2 -30 11 24 18 46 15 49 -2 3 -8 -6
-13 -19z"/>
<path d="M4696 8239 c-106 -37 -179 -100 -205 -178 -18 -54 -13 -57 24 -14 19
22 56 49 82 61 54 23 174 42 267 42 88 0 112 32 60 81 -36 34 -145 38 -228 8z"/>
<path d="M5454 7991 c-43 -20 -59 -46 -67 -116 -5 -34 -4 -36 5 -15 35 88 62
110 144 117 117 10 177 -25 199 -119 l13 -53 1 51 c1 62 -27 110 -79 136 -48
25 -161 24 -216 -1z"/>
<path d="M4635 7976 c-16 -7 -38 -23 -49 -34 -22 -25 -35 -87 -25 -122 7 -25
7 -25 8 3 3 83 71 137 172 137 93 -1 147 -35 170 -109 7 -25 7 -24 8 7 2 84
-64 132 -184 131 -38 0 -83 -6 -100 -13z"/>
<path d="M5505 7885 c-19 -18 -25 -35 -25 -65 0 -56 34 -90 89 -90 32 0 44 6
65 31 55 65 19 149 -64 149 -30 0 -47 -6 -65 -25z"/>
<path d="M4698 7885 c-79 -44 -40 -175 52 -175 35 0 80 53 80 93 0 49 -8 66
-41 82 -35 18 -56 18 -91 0z"/>
<path d="M5265 7477 c10 -7 44 -34 74 -62 34 -31 49 -40 40 -25 -18 27 -108
100 -124 99 -5 0 -1 -6 10 -12z"/>
<path d="M4930 7315 c-21 -25 -4 -45 38 -45 31 0 45 -7 76 -39 70 -72 109 -76
187 -19 34 26 54 33 89 33 37 0 46 4 56 24 17 33 10 41 -35 41 -27 0 -55 -12
-105 -45 -94 -61 -116 -60 -182 10 -55 58 -98 72 -124 40z"/>
<path d="M9103 7523 c-16 -6 -70 -92 -78 -126 -6 -23 -11 -26 -29 -20 -45 17
-122 7 -170 -21 -43 -25 -65 -55 -30 -42 35 13 124 19 124 7 0 -6 -4 -11 -10
-11 -26 0 -126 -46 -155 -71 -47 -41 -61 -77 -95 -245 -41 -197 -75 -296 -170
-494 -100 -209 -110 -238 -110 -320 0 -192 196 -349 470 -375 145 -15 341 63
389 154 13 24 3 69 -60 276 -48 156 -65 259 -55 338 13 101 74 139 110 69 13
-24 14 1 13 213 -2 271 -5 284 -81 357 -21 21 -36 42 -32 45 4 4 31 -5 59 -20
61 -32 68 -33 60 -9 -14 40 -56 82 -103 103 -27 12 -50 26 -50 31 0 4 14 30
30 56 17 27 30 58 30 69 0 20 -36 43 -57 36z"/>
<path d="M1411 7010 c0 -8 6 -28 14 -45 13 -30 13 -30 14 -4 1 14 -6 34 -14
45 -11 14 -14 15 -14 4z"/>
<path d="M1775 6991 c-16 -4 -43 -15 -60 -24 l-30 -17 30 6 c17 4 38 11 48 16
9 5 21 7 25 5 4 -2 21 2 37 9 29 13 29 13 5 13 -14 -1 -38 -4 -55 -8z"/>
<path d="M1525 6869 c-92 -14 -177 -46 -245 -93 -53 -37 -68 -43 -103 -40 -23
2 -64 -3 -92 -11 -57 -17 -145 -78 -145 -100 0 -22 7 -19 52 20 53 45 123 68
188 62 27 -3 48 -1 45 3 -16 26 156 119 259 140 167 34 376 -10 463 -97 56
-56 164 -210 180 -255 20 -58 28 -223 14 -302 -24 -136 -113 -267 -218 -324
-169 -90 -425 -101 -524 -23 l-24 19 1 -42 c1 -38 4 -42 45 -59 24 -11 68 -42
97 -70 67 -66 71 -39 4 32 -26 28 -47 51 -46 51 1 0 18 -7 37 -15 70 -29 271
-9 357 35 57 30 171 131 210 189 65 94 75 136 75 306 0 219 -16 259 -175 436
-71 80 -116 104 -245 130 -104 21 -119 21 -210 8z"/>
<path d="M1484 6751 c-61 -21 -141 -70 -175 -108 -27 -30 -5 -18 41 23 14 13
57 38 95 56 65 31 78 33 171 33 95 0 104 -2 175 -37 186 -92 294 -298 255
-487 -32 -155 -115 -254 -263 -317 -32 -14 -44 -22 -28 -19 95 20 227 132 269
227 73 165 48 340 -68 480 -119 143 -311 204 -472 149z"/>
<path d="M1488 6573 c-22 -8 -35 -20 -31 -26 3 -6 1 -7 -5 -3 -15 9 -65 -41
-56 -56 4 -6 3 -8 -4 -4 -6 4 -22 -12 -37 -39 -26 -43 -26 -47 -11 -70 9 -14
20 -25 23 -25 4 0 2 5 -5 12 -19 19 -14 37 11 34 41 -4 48 -14 33 -44 -17 -34
-11 -52 17 -52 13 0 17 -3 11 -8 -6 -4 -16 -33 -21 -66 -10 -57 -10 -59 19
-92 34 -38 139 -94 178 -94 15 0 34 8 42 18 24 27 48 79 40 87 -4 3 -1 5 7 3
7 -1 15 2 18 9 2 6 -12 14 -36 18 -23 4 -41 11 -41 17 0 6 -7 8 -15 4 -8 -3
-15 -1 -15 5 0 6 -16 31 -35 56 -48 63 -48 108 0 161 38 42 33 61 -14 63 -17
1 -20 3 -8 6 9 2 17 6 17 7 0 13 -33 96 -38 95 -4 0 -24 -7 -44 -16z m45 -75
c-8 -10 -5 -18 13 -31 17 -13 24 -14 24 -5 0 10 3 9 9 -2 11 -16 4 -33 -10
-25 -5 4 -9 1 -9 -4 0 -6 -18 -10 -40 -9 -39 1 -40 2 -40 39 0 28 6 42 22 53
25 18 48 6 31 -16z m-62 -61 c4 -15 3 -27 -2 -27 -5 0 -9 -11 -9 -25 0 -30 -5
-31 -29 -7 -28 27 -31 48 -9 71 24 27 40 23 49 -12z m34 -53 c0 -10 -8 -20
-17 -22 -18 -3 -26 27 -11 42 12 11 28 0 28 -20z m28 11 c4 -8 2 -17 -2 -20
-5 -2 -11 4 -14 15 -6 23 8 27 16 5z m-106 -67 c-3 -8 -6 -5 -6 6 -1 11 2 17
5 13 3 -3 4 -12 1 -19z m20 0 c-3 -8 -6 -5 -6 6 -1 11 2 17 5 13 3 -3 4 -12 1
-19z m33 -60 c0 -9 4 -8 10 2 7 11 14 12 27 4 28 -17 26 -30 -7 -44 -24 -10
-33 -10 -45 0 -19 16 -19 50 0 50 8 0 15 -6 15 -12z m115 -86 c3 -9 1 -18 -4
-20 -6 -2 -11 -9 -11 -17 0 -7 -6 -18 -14 -24 -10 -9 -19 -7 -37 8 l-24 19 29
30 c29 31 50 33 61 4z m55 -12 c8 -5 11 -10 5 -10 -5 0 -17 5 -25 10 -8 5 -10
10 -5 10 6 0 17 -5 25 -10z m-2 -22 c14 -14 16 -64 2 -73 -14 -9 -50 13 -50
31 0 19 18 54 28 54 5 0 13 -5 20 -12z"/>
<path d="M1588 6533 c-10 -2 -18 -9 -18 -14 0 -6 4 -8 8 -5 5 3 30 -6 57 -19
61 -31 65 -31 99 4 l27 28 -32 7 c-35 7 -114 6 -141 -1z"/>
<path d="M1021 6244 c0 -11 3 -14 6 -6 3 7 2 16 -1 19 -3 4 -6 -2 -5 -13z"/>
<path d="M1035 6198 c3 -16 28 -63 56 -105 57 -88 59 -90 59 -75 0 6 -21 41
-46 78 -26 38 -53 82 -61 99 -14 29 -14 29 -8 3z"/>
<path d="M1370 5967 c0 -7 13 -21 30 -30 36 -22 137 -57 159 -57 9 1 -19 12
-63 26 -43 14 -89 36 -102 49 -13 13 -24 19 -24 12z"/>
<path d="M1688 5883 c6 -2 18 -2 25 0 6 3 1 5 -13 5 -14 0 -19 -2 -12 -5z"/>
<path d="M9220 5868 c-50 -34 -124 -178 -92 -178 4 0 18 21 30 46 12 25 43 67
67 93 61 66 59 82 -5 39z"/>
<path d="M1608 5873 c12 -2 32 -2 45 0 12 2 2 4 -23 4 -25 0 -35 -2 -22 -4z"/>
<path d="M1351 5744 c0 -11 3 -14 6 -6 3 7 2 16 -1 19 -3 4 -6 -2 -5 -13z"/>
<path d="M4267 5646 c-23 -34 -21 -82 7 -206 29 -128 57 -210 106 -317 61
-131 165 -273 200 -270 10 1 16 5 14 9 -3 4 -1 8 4 8 5 0 13 10 19 23 8 18 5
28 -15 54 -13 18 -28 30 -33 27 -5 -3 -8 0 -7 8 2 7 -3 12 -10 10 -8 -1 -10 2
-7 8 8 13 -24 52 -36 45 -4 -3 -11 0 -15 6 -5 8 -3 9 6 4 8 -5 11 -3 8 6 -3 8
-11 13 -17 11 -7 -1 -10 2 -6 8 3 5 -3 24 -15 40 -55 77 -133 294 -168 464
-18 88 -18 88 -35 62z"/>
<path d="M6203 5545 c0 -44 2 -61 4 -37 2 23 2 59 0 80 -2 20 -4 1 -4 -43z"/>
<path d="M6181 5288 c-8 -84 -17 -199 -20 -255 -3 -56 -9 -104 -12 -108 -10
-9 -62 78 -120 198 -28 60 -58 111 -65 114 -33 12 -44 -17 -44 -114 0 -99 17
-169 66 -265 24 -48 47 -65 37 -28 -3 11 -9 18 -13 15 -4 -3 -15 13 -24 35
-20 50 -20 63 0 30 10 -17 13 -18 8 -5 -15 44 -26 107 -20 120 9 24 32 7 72
-53 56 -85 115 -153 130 -150 11 2 14 64 17 311 3 169 4 307 3 307 -1 0 -8
-69 -15 -152z m-244 -215 c-3 -10 -5 -4 -5 12 0 17 2 24 5 18 2 -7 2 -21 0
-30z"/>
<path d="M4741 5174 c-26 -19 -101 -167 -101 -200 0 -30 17 -39 45 -24 21 11
46 58 85 158 7 17 18 32 26 32 15 0 53 -48 79 -98 9 -19 19 -31 22 -28 11 11
-20 97 -48 136 -33 45 -67 52 -108 24z"/>
<path d="M4606 4977 c3 -10 9 -15 12 -12 3 3 0 11 -7 18 -10 9 -11 8 -5 -6z"/>
<path d="M3296 4460 c3 -25 21 -112 39 -195 18 -82 50 -238 70 -345 20 -107
41 -212 47 -232 10 -44 30 -52 23 -10 -42 246 -144 720 -170 788 l-15 39 6
-45z"/>
<path d="M2066 4125 c-3 -8 -1 -15 4 -15 6 0 10 7 10 15 0 8 -2 15 -4 15 -2 0
-6 -7 -10 -15z"/>
<path d="M8560 4076 c0 -13 -18 -116 -40 -228 -22 -111 -40 -208 -40 -215 0
-16 158 -115 172 -107 7 4 8 3 4 -4 -4 -8 37 -32 116 -71 165 -78 152 -76 182
-31 14 22 26 41 26 44 0 10 42 97 45 94 2 -2 -5 -37 -15 -78 -21 -79 -24 -97
-14 -88 5 5 104 375 104 390 0 4 -10 10 -22 14 -42 12 -112 47 -198 98 -46 27
-90 49 -97 49 -7 0 -10 3 -8 7 2 4 -19 22 -48 40 -29 19 -70 47 -92 64 -22 17
-35 24 -30 15 6 -8 1 -5 -10 8 -26 29 -35 29 -35 -1z m507 -368 c-3 -8 -6 -5
-6 6 -1 11 2 17 5 13 3 -3 4 -12 1 -19z m-13 -52 c-3 -15 -8 -25 -11 -23 -2 3
-1 17 3 31 3 15 8 25 11 23 2 -3 1 -17 -3 -31z"/>
<path d="M1943 4042 c-1 -21 45 -397 53 -435 3 -16 8 -26 10 -24 3 2 -7 94
-20 203 -14 110 -27 214 -28 232 -2 35 -14 53 -15 24z"/>
<path d="M2082 4010 c0 -14 2 -19 5 -12 2 6 2 18 0 25 -3 6 -5 1 -5 -13z"/>
<path d="M1720 3927 c0 -26 77 -389 89 -417 17 -43 12 -12 -34 209 -40 195
-55 251 -55 208z"/>
<path d="M3710 3835 c0 -63 3 -85 13 -85 7 0 39 -36 71 -79 60 -82 145 -152
215 -177 57 -21 144 -17 197 7 24 12 84 60 132 107 78 77 162 132 200 132 9 0
12 25 12 90 l0 90 -420 0 -420 0 0 -85z m499 -71 c2 -2 -56 -3 -130 -3 -82 1
-119 4 -94 8 39 7 216 2 224 -5z m4 -105 c10 -6 16 -13 14 -16 -3 -2 -14 0
-25 6 -12 6 -49 11 -84 12 -46 0 -58 3 -43 9 23 11 110 4 138 -11z"/>
<path d="M1540 3874 c-41 -12 -93 -23 -115 -24 -68 -1 -66 8 -50 -235 8 -121
15 -222 15 -224 0 -12 332 58 348 74 3 2 -7 18 -21 35 -57 67 -84 166 -89 317
-2 46 -5 82 -8 82 -3 -1 -39 -12 -80 -25z"/>
<path d="M3345 3853 c3 -10 9 -80 12 -156 3 -75 9 -135 12 -132 7 7 2 227 -6
273 -3 17 -10 32 -15 32 -6 0 -7 -8 -3 -17z"/>
<path d="M2102 3765 c0 -16 2 -22 5 -12 2 9 2 23 0 30 -3 6 -5 -1 -5 -18z"/>
<path d="M9221 3684 c0 -11 3 -14 6 -6 3 7 2 16 -1 19 -3 4 -6 -2 -5 -13z"/>
<path d="M2112 3660 c0 -14 2 -19 5 -12 2 6 2 18 0 25 -3 6 -5 1 -5 -13z"/>
<path d="M9211 3594 c0 -11 3 -14 6 -6 3 7 2 16 -1 19 -3 4 -6 -2 -5 -13z"/>
<path d="M6371 3534 c-1 -20 27 -54 45 -54 4 0 -1 7 -13 15 -12 8 -24 25 -26
38 -4 21 -4 21 -6 1z"/>
<path d="M9201 3504 c0 -11 3 -14 6 -6 3 7 2 16 -1 19 -3 4 -6 -2 -5 -13z"/>
<path d="M9191 3424 c0 -11 3 -14 6 -6 3 7 2 16 -1 19 -3 4 -6 -2 -5 -13z"/>
<path d="M9182 3355 c0 -16 2 -22 5 -12 2 9 2 23 0 30 -3 6 -5 -1 -5 -18z"/>
<path d="M3266 3018 c-24 -34 -19 -104 14 -198 39 -108 49 -190 27 -212 -9 -9
-13 -19 -9 -23 4 -5 -15 4 -42 18 -26 15 -53 24 -59 20 -5 -3 -7 -1 -4 4 16
25 -63 31 -87 7 -19 -18 -22 -69 -4 -58 7 5 8 3 3 -5 -4 -8 1 -19 15 -28 12
-8 19 -21 16 -28 -6 -16 6 -26 104 -95 41 -30 69 -45 61 -34 -7 10 -2 7 12 -8
14 -15 28 -24 32 -20 4 4 5 2 4 -3 -2 -6 2 -20 9 -33 14 -24 8 -62 -9 -62 -6
0 -8 -4 -5 -9 12 -18 -52 4 -106 37 -58 35 -83 37 -95 6 -13 -34 73 -157 105
-152 9 2 17 -4 17 -12 0 -8 8 -14 18 -14 9 1 15 -2 12 -6 -7 -11 63 -42 77
-34 6 4 8 3 5 -3 -9 -14 18 -24 40 -16 12 5 14 3 8 -7 -6 -10 -4 -12 11 -6 10
4 15 4 11 0 -4 -4 1 -13 10 -19 14 -10 15 -16 5 -27 -6 -8 -8 -19 -4 -23 4 -5
2 -5 -5 -1 -6 3 -43 3 -82 0 -51 -5 -71 -11 -71 -21 0 -8 -5 -11 -11 -7 -7 4
-10 -1 -7 -12 2 -11 26 -31 53 -46 65 -35 352 -131 371 -124 9 3 12 1 9 -4 -9
-15 38 -12 55 3 12 10 12 9 1 -5 -12 -16 -11 -18 9 -18 13 0 53 -17 89 -38 36
-21 85 -45 108 -55 57 -23 206 -40 278 -32 61 7 202 49 219 65 5 5 21 1 37
-11 74 -52 238 -109 317 -109 22 0 42 -5 44 -11 9 -27 187 -20 368 13 68 13
149 50 179 82 l24 25 41 -34 c72 -59 172 -92 366 -121 63 -9 171 -18 240 -18
119 -1 127 0 172 27 47 27 90 85 103 138 5 21 12 25 40 25 18 -1 31 -4 29 -7
-6 -11 85 -19 217 -19 98 0 131 3 142 15 8 8 17 12 19 10 3 -3 5 2 5 11 0 9
-20 31 -44 47 -40 29 -56 57 -32 57 5 0 8 4 5 9 -3 5 0 8 7 8 19 -2 157 23
219 40 65 17 88 37 69 56 -10 9 -11 8 -6 -4 4 -10 1 -20 -6 -25 -7 -4 -10 -3
-6 4 4 5 4 18 1 27 -5 11 -9 13 -14 5 -5 -7 -11 -6 -21 6 -9 12 -10 15 -1 10
24 -15 11 2 -15 20 -27 17 -28 17 -13 -2 14 -17 13 -18 -1 -6 -26 20 -19 81
11 101 14 9 21 11 16 3 -4 -6 8 -3 26 7 18 11 62 27 98 36 78 20 93 28 96 49
3 20 -40 51 -57 40 -7 -4 -9 -3 -6 3 4 6 -4 14 -18 17 -36 9 -53 55 -28 76 11
8 25 24 33 34 13 18 13 19 0 12 -8 -5 -1 3 15 18 17 14 26 25 22 26 -4 0 5 12
20 26 15 15 21 23 13 18 -9 -5 -4 2 10 15 14 13 18 20 10 16 -8 -4 -5 2 7 12
32 26 65 106 57 139 -7 26 -7 26 -35 -20 -16 -25 -29 -49 -29 -52 0 -7 -88
-130 -175 -244 -35 -47 -65 -91 -65 -99 0 -10 13 -12 55 -9 31 3 50 1 43 -3
-7 -5 -34 -9 -60 -9 -45 0 -52 -4 -145 -86 -54 -47 -106 -95 -115 -105 -9 -11
-20 -19 -23 -19 -4 1 -21 -10 -38 -25 -29 -24 -105 -68 -117 -68 -13 0 -70
-32 -70 -39 0 -4 2 -8 4 -8 2 0 48 -9 102 -20 118 -24 149 -37 133 -57 -10
-11 -13 -11 -23 2 -12 17 -191 65 -241 65 -18 0 -48 -11 -69 -25 -20 -13 -36
-23 -37 -22 -7 21 -4 36 10 40 9 2 19 5 23 6 19 5 152 80 170 96 17 14 18 19
7 26 -8 5 -21 9 -30 9 -10 0 -16 9 -16 23 -1 48 -3 58 -13 52 -8 -5 -7 -12 2
-23 11 -15 10 -14 -8 0 -19 17 -21 17 -40 -1 -11 -10 -30 -24 -42 -30 -21 -11
-21 -10 -11 13 12 26 61 52 77 42 6 -3 33 15 61 40 68 62 114 155 114 232 0
155 -134 285 -296 286 l-69 1 -15 -55 c-7 -30 -23 -73 -33 -96 -25 -50 -25
-65 -2 -57 9 3 14 3 10 -2 -4 -4 -2 -15 5 -23 9 -12 5 -12 -21 2 -18 9 -41 16
-50 14 -11 -2 1 -12 31 -27 68 -33 150 -116 165 -167 30 -101 11 -207 -52
-300 -23 -34 -24 -38 -9 -50 16 -11 16 -15 -1 -52 -41 -91 -135 -144 -288
-163 -161 -20 -373 15 -499 82 -66 35 -151 115 -169 158 l-12 30 -54 -45 c-69
-55 -105 -71 -219 -91 -157 -28 -333 -19 -483 23 -20 5 13 -11 43 -21 18 -7
18 -8 -6 -15 -15 -4 -45 -6 -68 -5 -23 1 -44 -1 -47 -6 -3 -5 -14 -4 -25 1
-10 6 -19 8 -19 5 0 -9 -85 53 -110 80 -32 34 -105 238 -95 264 5 14 7 14 16
1 8 -12 9 -11 5 5 -3 11 -8 38 -12 59 -6 37 -6 39 17 33 13 -3 44 -9 69 -13
68 -10 76 -18 99 -91 52 -173 217 -285 441 -300 80 -5 90 -4 163 27 75 31 99
52 90 78 -3 6 -16 12 -29 12 -15 0 -24 6 -24 15 0 9 9 15 23 15 30 0 84 27
117 57 30 28 18 31 -16 4 -13 -10 -51 -27 -84 -37 -50 -15 -59 -21 -54 -36 4
-13 1 -16 -10 -12 -9 3 -16 10 -16 14 0 8 -50 1 -65 -10 -17 -12 -151 7 -201
29 -25 12 -51 18 -57 14 -5 -3 -7 -2 -4 4 4 6 -5 20 -18 33 -14 13 -27 39 -30
59 -4 20 -8 46 -11 59 -3 15 0 22 11 22 11 0 13 4 8 13 -4 6 -6 48 -4 92 5
144 -43 259 -159 376 -89 89 -163 129 -289 155 -262 52 -512 -80 -627 -331
-20 -43 -30 -55 -49 -55 -12 0 -28 6 -34 13 -11 14 -11 98 0 91 9 -5 20 26 14
36 -3 5 0 12 6 16 8 5 10 2 5 -7 -4 -8 0 -5 8 6 9 11 14 25 11 33 -2 7 0 10 5
7 12 -7 60 90 60 122 0 33 -19 75 -30 68 -6 -4 -9 -1 -8 6 5 24 -29 20 -61 -7
-31 -26 -64 -77 -59 -90 2 -4 -7 -9 -20 -10 -13 -3 -25 2 -28 11 -4 8 -10 12
-15 9 -5 -3 -6 3 -2 12 5 13 3 15 -7 9 -9 -5 -11 -4 -6 4 10 16 -15 112 -27
104 -6 -4 -8 1 -4 11 10 26 -3 101 -15 84 -7 -9 -8 -5 -4 13 12 56 -42 159
-84 159 -11 0 -26 -10 -34 -22z m87 -183 c14 -66 33 -158 41 -205 8 -47 24
-109 34 -138 l19 -54 35 44 c20 23 40 53 47 65 15 29 91 117 91 105 0 -5 -7
-15 -15 -22 -8 -7 -28 -35 -44 -64 -16 -28 -47 -71 -67 -95 -21 -24 -39 -51
-40 -59 -4 -22 34 -138 74 -227 43 -96 52 -111 63 -94 4 7 14 -12 23 -44 9
-31 19 -64 22 -74 4 -10 -12 7 -34 37 -22 30 -38 58 -36 62 2 3 -4 21 -15 40
-34 59 -104 242 -105 275 -1 29 -4 33 -31 34 -17 1 -22 3 -12 6 21 6 22 37 1
94 -8 24 -24 94 -34 154 -11 61 -28 151 -39 200 -22 98 -25 118 -12 95 4 -8
20 -69 34 -135z m14 103 c-3 -8 -6 -5 -6 6 -1 11 2 17 5 13 3 -3 4 -12 1 -19z
m278 -329 c-15 -33 -15 -33 -9 -5 5 27 4 28 -13 15 -12 -10 -11 -5 5 15 12 16
23 36 23 45 1 9 4 4 6 -10 2 -15 -3 -42 -12 -60z m2844 -81 c65 -25 119 -77
156 -152 22 -46 27 -66 23 -110 -5 -55 -35 -125 -71 -164 l-21 -22 -13 52
c-19 75 -74 178 -100 191 -21 9 -24 15 -22 33 0 3 -8 12 -18 20 -17 13 -17 14
2 8 12 -3 9 1 -8 11 -15 9 -33 13 -39 9 -6 -4 -8 -3 -4 4 3 6 -7 18 -23 28
-16 10 -27 24 -26 33 2 9 4 33 4 54 l1 39 53 -7 c28 -4 76 -16 106 -27z
m-1976 -28 c59 -52 93 -124 106 -223 16 -118 15 -127 -13 -127 -14 0 -32 10
-40 22 -16 23 -19 24 -75 34 -28 6 -36 2 -56 -22 -29 -35 -41 -26 -50 37 -7
48 2 63 40 71 11 2 20 10 20 18 0 20 -73 60 -110 60 -23 0 -27 3 -15 10 8 6
34 7 58 4 50 -7 55 6 9 28 -37 18 -44 46 -22 89 17 31 28 37 71 38 23 1 43
-10 77 -39z m-1307 -42 c4 -7 -9 1 -29 16 -20 16 -37 30 -37 33 0 7 58 -36 66
-49z m124 15 c0 -7 -39 17 -46 28 -3 6 5 3 20 -6 14 -10 26 -19 26 -22z m280
-159 c0 -14 -3 -14 -15 -4 -8 7 -15 14 -15 16 0 2 7 4 15 4 8 0 15 -7 15 -16z
m2817 10 c-3 -3 -12 -4 -19 -1 -8 3 -5 6 6 6 11 1 17 -2 13 -5z m-44 -11 c-7
-2 -21 -2 -30 0 -10 3 -4 5 12 5 17 0 24 -2 18 -5z m62 -3 c-3 -5 -12 -10 -18
-10 -7 0 -6 4 3 10 19 12 23 12 15 0z m-40 -83 c19 -35 35 -70 35 -78 0 -8
-11 9 -24 36 -13 28 -35 62 -49 78 -17 17 -21 27 -12 27 8 0 30 -29 50 -63z
m-3184 -54 c13 -16 12 -17 -3 -4 -17 13 -22 21 -14 21 2 0 10 -8 17 -17z m200
-38 c19 -8 27 -14 19 -14 -14 0 -72 28 -59 29 4 0 22 -7 40 -15z m3026 -37
c-3 -7 -5 -2 -5 12 0 14 2 19 5 13 2 -7 2 -19 0 -25z m-2928 1 c17 -6 31 -15
31 -20 0 -5 -15 -2 -32 7 -53 27 -53 32 1 13z m1149 -25 c25 -17 30 -44 8 -44
-8 0 -19 12 -25 28 l-11 27 5 -27 c6 -33 -8 -44 -29 -22 -18 18 -18 17 -10 38
8 20 33 20 62 0z m1892 -9 c0 -2 -6 -5 -13 -8 -8 -3 -14 1 -14 8 0 7 6 11 14
8 7 -3 13 -6 13 -8z m-107 -30 c4 -8 2 -17 -3 -20 -6 -4 -10 3 -10 14 0 25 6
27 13 6z m-1859 -21 c9 -3 16 -17 16 -30 0 -19 5 -24 28 -25 22 0 19 -3 -18
-15 -25 -7 -50 -14 -57 -14 -20 0 -26 39 -9 65 18 28 18 27 40 19z m71 -14
c31 -12 24 -32 -10 -27 -26 3 -47 17 -26 17 7 0 9 5 6 10 -8 13 -3 13 30 0z
m-738 -32 c-3 -8 -6 -5 -6 6 -1 11 2 17 5 13 3 -3 4 -12 1 -19z m799 -32 c23
-18 19 -22 -28 -31 -35 -7 -38 -5 -38 15 0 19 2 20 15 10 12 -10 15 -10 15 4
0 20 10 20 36 2z m-1107 -12 c7 -7 -121 -2 -184 6 -40 5 -21 6 60 3 66 -3 122
-7 124 -9z m3279 -11 c-26 -2 -71 -2 -100 0 -29 2 -8 3 47 3 55 0 79 -1 53 -3z
m-482 -15 c4 -7 4 -10 -1 -6 -4 4 -14 0 -22 -10 -13 -15 -13 -15 -3 6 12 25
16 27 26 10z m-1638 -30 c-3 -7 -16 -20 -30 -28 -22 -12 -28 -12 -43 0 -16 13
-16 15 1 27 23 17 77 17 72 1z m125 -21 c2 -7 0 -22 -4 -35 -7 -18 -15 -23
-36 -20 -33 4 -42 32 -18 58 17 19 50 17 58 -3z m172 3 c3 -5 15 -10 25 -10
25 0 35 -17 20 -35 -19 -23 -58 -18 -76 10 -8 13 -13 29 -9 35 8 13 32 13 40
0z m1298 -2 c-4 -7 -6 -21 -4 -32 1 -11 -2 -16 -8 -12 -14 9 -14 29 1 44 16
16 21 15 11 0z m-2643 -29 c15 -28 5 -23 -15 7 -9 15 -12 23 -6 20 6 -4 16
-16 21 -27z m1280 12 c15 -30 12 -40 -15 -47 -29 -7 -55 10 -55 36 0 33 54 41
70 11z m1794 -119 c3 -5 -1 -9 -9 -9 -8 0 -11 5 -8 10 4 6 0 8 -10 4 -17 -6
-31 5 -20 16 6 7 39 -8 47 -21z m-1891 -29 c-7 -2 -21 -2 -30 0 -10 3 -4 5 12
5 17 0 24 -2 18 -5z"/>
<path d="M6500 2356 c0 -2 8 -10 18 -17 15 -13 16 -12 3 4 -13 16 -21 21 -21
13z"/>
<path d="M4570 1975 c0 -5 5 -17 10 -25 5 -8 10 -10 10 -5 0 6 -5 17 -10 25
-5 8 -10 11 -10 5z"/>
<path d="M5630 2673 c23 -28 52 -73 64 -101 25 -59 36 -73 36 -46 -1 48 -74
159 -123 186 -12 6 -2 -11 23 -39z"/>
<path d="M7222 2655 c-41 -18 -146 -121 -137 -135 4 -6 1 -9 -7 -8 -7 2 -12
-5 -12 -14 1 -10 -2 -16 -6 -13 -12 7 -72 -94 -64 -107 4 -6 3 -8 -3 -5 -5 3
-27 -21 -48 -53 -21 -33 -43 -60 -48 -60 -4 0 -6 -4 -3 -9 3 -4 -6 -6 -20 -3
-29 5 -40 23 -55 90 -11 53 -39 106 -36 68 1 -11 -5 -20 -15 -21 -15 -3 -16 0
-7 17 8 15 8 19 -1 13 -23 -14 -33 -63 -40 -200 -5 -89 -13 -154 -23 -178 -9
-20 -14 -37 -11 -37 3 0 -4 -13 -16 -29 -50 -71 30 -35 133 59 l49 45 -16 55
c-17 60 -39 210 -32 217 3 3 8 -17 11 -44 11 -74 34 -183 43 -199 16 -29 135
118 328 408 63 94 94 159 75 158 -3 -1 -21 -7 -39 -15z"/>
<path d="M5496 2509 c-22 -5 -53 -18 -70 -28 -17 -11 -35 -19 -39 -19 -5 0
-12 -4 -15 -8 -4 -4 -2 -4 5 0 7 4 1 -13 -12 -36 -14 -24 -25 -59 -25 -80 0
-32 -3 -38 -22 -38 -22 0 -106 -78 -128 -119 -9 -17 -8 -21 5 -21 8 0 15 5 15
10 0 6 19 31 41 55 43 47 65 54 113 35 25 -9 37 2 16 15 -5 3 -10 29 -10 57 0
63 29 106 93 137 78 38 151 24 226 -44 22 -20 45 -34 51 -30 14 9 13 38 -2 33
-6 -2 -25 9 -42 25 -59 55 -127 74 -200 56z"/>
<path d="M5243 2452 c-23 -2 -33 -8 -33 -21 0 -10 -13 -22 -34 -29 -41 -15
-102 -80 -123 -130 l-15 -36 -24 31 c-51 65 -174 94 -226 53 -57 -45 -60 -114
-7 -193 28 -42 35 -47 97 -61 37 -8 93 -18 126 -22 56 -6 58 -6 47 14 -49 91
53 319 151 339 16 3 31 10 34 14 3 5 22 9 42 10 47 1 83 11 85 24 2 10 -60 14
-120 7z m-274 -206 c13 -16 5 -46 -13 -46 -23 0 -49 27 -43 44 8 20 40 21 56
2z"/>
<path d="M5867 2450 c-131 -33 -227 -148 -258 -310 -7 -36 -14 -66 -14 -68 -1
-1 -15 3 -32 8 -20 7 -38 8 -56 1 -21 -8 -27 -7 -30 7 -4 15 -5 15 -6 -1 0
-10 -5 -15 -11 -12 -5 3 -10 1 -10 -4 0 -6 -8 -11 -17 -11 -14 0 -15 2 -5 9
11 6 10 10 -4 15 -21 8 -26 3 -18 -18 3 -9 17 -16 30 -16 13 0 24 -4 24 -10 0
-5 -7 -7 -15 -4 -8 4 -22 1 -30 -6 -8 -6 -19 -9 -25 -5 -5 3 -10 2 -10 -3 0
-12 126 -35 165 -31 24 3 31 10 36 34 6 25 7 22 8 -17 1 -53 2 -52 -66 -39
-90 18 -135 22 -129 12 4 -5 19 -12 36 -16 19 -4 33 -16 39 -33 8 -19 10 -21
7 -5 -4 24 -9 25 169 -35 50 -17 109 -34 133 -38 23 -4 42 -8 42 -11 0 -2 -7
-17 -15 -33 l-16 -30 58 0 c32 0 68 -3 81 -6 32 -9 29 25 -5 58 -43 40 -80 54
-200 78 -71 14 -114 28 -117 37 -10 25 13 196 33 255 39 115 115 194 214 223
96 29 207 13 269 -38 15 -12 40 -48 56 -80 23 -45 31 -54 34 -39 12 45 -52
126 -130 163 -50 25 -155 34 -215 19z"/>
<path d="M5118 2033 c6 -2 18 -2 25 0 6 3 1 5 -13 5 -14 0 -19 -2 -12 -5z"/>
<path d="M5290 2036 c0 -2 7 -7 16 -10 8 -3 12 -2 9 4 -6 10 -25 14 -25 6z"/>
<path d="M6654 1978 l-19 -23 23 19 c21 18 27 26 19 26 -2 0 -12 -10 -23 -22z"/>
<path d="M6578 1938 c6 -6 18 -8 28 -6 14 3 12 5 -9 10 -19 3 -25 2 -19 -4z"/>
<path d="M5362 1915 c0 -16 2 -22 5 -12 2 9 2 23 0 30 -3 6 -5 -1 -5 -18z"/>
<path d="M5480 1889 c0 -29 58 -107 105 -139 58 -40 131 -66 227 -81 76 -12
211 -6 264 11 29 10 29 10 -5 5 -273 -41 -503 32 -572 180 -10 22 -19 33 -19
24z"/>
<path d="M4480 1816 c0 -2 8 -10 18 -17 15 -13 16 -12 3 4 -13 16 -21 21 -21
13z"/>
<path d="M6242 1754 c-13 -9 -49 -26 -80 -39 -31 -13 -52 -24 -45 -25 17 0
113 44 138 64 26 20 16 21 -13 0z"/>
<path d="M3560 1524 c111 -53 203 -88 320 -122 763 -220 2060 -211 2785 18
107 34 289 110 281 117 -2 3 -60 -13 -128 -35 -423 -137 -932 -202 -1585 -202
-646 0 -1158 69 -1595 216 -73 24 -137 44 -142 44 -6 0 23 -16 64 -36z"/>
</g>
</svg>
