<svg xmlns="http://www.w3.org/2000/svg" width="553" height="451" viewBox="0 0 553 451" version="1.1"><path d="M 252.499 30.376 C 247.548 31.079, 239.316 32.686, 234.205 33.949 C 229.094 35.212, 225.090 36.423, 225.306 36.640 C 225.523 36.856, 229.644 36.097, 234.464 34.952 C 239.284 33.808, 248.014 32.234, 253.864 31.455 C 259.714 30.676, 271.712 30.030, 280.526 30.020 C 289.341 30.009, 300.366 30.461, 305.026 31.024 C 309.687 31.588, 317.074 32.760, 321.442 33.629 C 325.810 34.499, 335.369 37.159, 342.684 39.542 C 349.999 41.925, 361.950 46.761, 369.242 50.289 C 376.534 53.817, 387.225 59.846, 393 63.686 C 398.775 67.527, 406.425 73.019, 410 75.891 C 413.575 78.764, 420.211 84.698, 424.746 89.079 C 429.282 93.460, 436.453 101.197, 440.681 106.272 C 444.910 111.348, 451.287 119.990, 454.852 125.479 C 458.418 130.967, 463.925 140.867, 467.092 147.479 C 470.258 154.090, 473.618 161.750, 474.558 164.500 C 475.498 167.250, 477.559 174.225, 479.138 180 C 480.717 185.775, 481.753 188.700, 481.441 186.500 C 481.129 184.300, 479.557 177.894, 477.948 172.265 C 476.338 166.636, 472.813 157.137, 470.114 151.155 C 467.415 145.174, 462.643 136.055, 459.509 130.890 C 456.375 125.726, 451.971 119.025, 449.721 116 C 447.472 112.975, 442.403 106.674, 438.458 101.998 C 434.513 97.322, 428.225 90.633, 424.485 87.135 C 420.745 83.636, 414.268 78.051, 410.092 74.724 C 405.917 71.396, 398 65.751, 392.500 62.178 C 387 58.605, 376.690 52.848, 369.588 49.385 C 362.486 45.922, 350.545 41.079, 343.052 38.622 C 335.559 36.165, 324.494 33.159, 318.464 31.941 C 309.465 30.125, 303.378 29.672, 284.500 29.414 C 269.532 29.209, 258.357 29.545, 252.499 30.376 M 211.500 40.575 C 207.650 41.909, 198.200 46.107, 190.500 49.904 C 182.800 53.701, 171.100 60.411, 164.500 64.815 C 157.900 69.219, 148.147 76.698, 142.827 81.434 C 137.507 86.171, 129.468 94.198, 124.964 99.273 C 120.460 104.348, 112.751 114.516, 107.834 121.869 C 102.916 129.221, 96.490 140.246, 93.554 146.369 C 90.617 152.491, 86.614 162.225, 84.659 168 C 82.703 173.775, 80.127 183, 78.935 188.500 C 77.198 196.509, 76.669 203.005, 76.278 221.121 C 75.890 239.121, 76.130 245.965, 77.456 254.621 C 78.373 260.605, 80.405 270.475, 81.972 276.555 C 83.539 282.635, 86.493 292.085, 88.535 297.555 C 90.578 303.025, 93.718 310.425, 95.513 314 C 97.308 317.575, 102.352 325.900, 106.721 332.500 C 111.090 339.100, 117.409 347.875, 120.763 352 C 124.117 356.125, 130.381 363.105, 134.681 367.510 C 138.981 371.916, 145.875 378.263, 150 381.616 C 154.125 384.968, 162.450 390.974, 168.500 394.962 C 174.550 398.951, 184.900 404.846, 191.500 408.063 C 198.100 411.280, 208.743 415.699, 215.152 417.884 C 221.560 420.068, 232.080 423.039, 238.529 424.485 C 244.979 425.932, 254.135 427.280, 258.878 427.480 C 263.620 427.681, 265.925 427.654, 264 427.420 C 262.075 427.187, 256.900 426.517, 252.500 425.932 C 248.100 425.347, 239.325 423.579, 233 422.004 C 226.675 420.429, 217.450 417.711, 212.500 415.964 C 207.550 414.217, 198.550 410.399, 192.500 407.481 C 186.450 404.563, 176.879 399.230, 171.230 395.631 C 165.582 392.032, 158.157 386.938, 154.730 384.312 C 151.304 381.686, 144.508 375.704, 139.628 371.019 C 134.749 366.333, 127.356 358.452, 123.200 353.504 C 119.044 348.556, 112.056 339.106, 107.672 332.504 C 103.287 325.902, 97.793 316.450, 95.463 311.500 C 93.134 306.550, 89.625 297.775, 87.666 292 C 85.708 286.225, 82.973 276.542, 81.589 270.482 C 80.206 264.421, 78.551 255.036, 77.913 249.624 C 77.201 243.590, 76.949 231.995, 77.260 219.643 C 77.598 206.231, 78.337 196.827, 79.474 191.500 C 80.412 187.100, 82.324 179.450, 83.723 174.500 C 85.121 169.550, 88.091 161.225, 90.323 156 C 92.555 150.775, 95.938 143.575, 97.840 140 C 99.743 136.425, 103.765 129.675, 106.777 125 C 109.790 120.325, 115.065 112.900, 118.499 108.500 C 121.934 104.100, 130.314 95.094, 137.122 88.486 C 143.930 81.879, 153.325 73.733, 158 70.384 C 162.675 67.036, 170.912 61.714, 176.304 58.558 C 181.697 55.402, 190.022 50.982, 194.804 48.736 C 199.587 46.491, 207.550 43.179, 212.500 41.377 C 217.450 39.574, 220.825 38.111, 220 38.124 C 219.175 38.138, 215.350 39.240, 211.500 40.575 M 263.768 54.043 C 258.966 54.544, 250.528 55.874, 245.017 56.997 C 239.506 58.120, 230.167 60.621, 224.263 62.555 C 218.358 64.489, 208.875 68.294, 203.189 71.010 C 197.502 73.727, 188.496 78.803, 183.175 82.290 C 177.854 85.778, 169.450 92.031, 164.500 96.186 C 159.550 100.341, 152.284 107.126, 148.354 111.264 C 144.423 115.402, 138.726 122.098, 135.694 126.144 C 132.662 130.190, 127.890 137.287, 125.091 141.915 C 122.291 146.543, 120 150.706, 120 151.165 C 120 151.624, 118.342 152, 116.316 152 C 114.289 152, 110.772 152.900, 108.500 154 C 105.816 155.299, 103.575 157.411, 102.105 160.028 L 99.841 164.055 100.273 209.278 C 100.638 247.337, 100.977 255.666, 102.417 261.859 C 103.358 265.907, 105.252 273.107, 106.626 277.859 C 108 282.612, 110.565 290.065, 112.326 294.421 C 114.087 298.778, 116.084 302.528, 116.764 302.755 C 117.729 303.076, 117.951 297.069, 117.775 275.333 L 117.549 247.500 117.025 274.500 L 116.500 301.500 114.667 297.500 C 113.659 295.300, 111.322 289, 109.474 283.500 C 107.627 278, 105.126 269, 103.918 263.500 C 101.891 254.278, 101.685 250.119, 101.269 210.027 C 100.963 180.651, 101.165 165.391, 101.892 162.967 C 102.483 160.994, 104.095 158.319, 105.475 157.023 C 107.305 155.304, 109.509 154.539, 113.616 154.199 C 118.618 153.784, 119.428 153.399, 120.873 150.748 C 121.768 149.106, 125.947 142.529, 130.161 136.132 C 134.374 129.734, 141.221 120.709, 145.376 116.075 C 149.532 111.442, 156.659 104.345, 161.216 100.305 C 165.772 96.265, 174.103 89.802, 179.729 85.944 C 185.355 82.085, 194.733 76.480, 200.569 73.488 C 206.405 70.495, 216.797 66.220, 223.663 63.986 C 230.529 61.752, 240.285 59.073, 245.342 58.033 C 250.399 56.992, 260.230 55.605, 267.189 54.951 C 276.917 54.037, 282.910 54.033, 293.113 54.935 C 300.412 55.580, 309.471 56.758, 313.244 57.551 C 317.017 58.345, 324.212 60.176, 329.232 61.620 C 334.252 63.065, 342.059 65.738, 346.580 67.560 C 351.101 69.383, 358.108 72.535, 362.150 74.564 C 366.193 76.593, 372.650 80.279, 376.500 82.754 C 380.350 85.230, 387.325 90.225, 392 93.854 C 396.675 97.483, 404.651 104.651, 409.724 109.783 C 414.797 114.915, 421.694 122.800, 425.049 127.307 C 428.404 131.813, 433.432 139.221, 436.222 143.770 C 439.012 148.318, 441.485 151.849, 441.718 151.616 C 441.950 151.383, 439.867 147.525, 437.087 143.043 C 434.307 138.562, 429.492 131.518, 426.386 127.391 C 423.280 123.265, 417.361 116.297, 413.232 111.909 C 409.103 107.520, 401.742 100.587, 396.875 96.503 C 392.007 92.419, 384.554 86.736, 380.313 83.874 C 376.072 81.012, 367.820 76.279, 361.975 73.355 C 356.130 70.431, 346.992 66.463, 341.669 64.536 C 336.346 62.609, 327.605 59.930, 322.245 58.584 C 316.885 57.237, 309.043 55.663, 304.817 55.087 C 300.592 54.510, 291.592 53.835, 284.817 53.585 C 278.043 53.336, 268.571 53.542, 263.768 54.043 M 258 91.667 C 253.325 92.481, 245 94.652, 239.500 96.490 C 234 98.328, 227.325 100.808, 224.667 102 C 222.009 103.192, 220.025 104.358, 220.259 104.592 C 220.493 104.826, 223.568 103.711, 227.092 102.115 C 230.616 100.518, 237.325 98.054, 242 96.639 C 246.675 95.223, 254.496 93.376, 259.381 92.533 C 264.266 91.690, 273.941 91.009, 280.881 91.020 C 287.821 91.031, 296.650 91.487, 300.500 92.035 C 304.350 92.582, 310.903 93.905, 315.063 94.974 C 319.223 96.042, 327.098 98.739, 332.563 100.967 C 338.028 103.194, 346.325 107.337, 351 110.174 C 355.675 113.010, 362.068 117.292, 365.207 119.690 C 368.345 122.088, 374.332 127.480, 378.510 131.671 C 382.688 135.863, 388.961 143.389, 392.451 148.396 C 395.940 153.403, 400.862 161.625, 403.388 166.666 C 405.915 171.707, 409.366 179.963, 411.057 185.012 C 412.749 190.061, 414.778 197.564, 415.567 201.684 C 416.471 206.413, 416.993 215.506, 416.980 226.338 C 416.969 235.777, 416.513 246.650, 415.965 250.500 C 415.418 254.350, 414.047 261.089, 412.920 265.475 C 411.792 269.862, 409.960 276.151, 408.848 279.451 C 407.736 282.751, 405.025 289.062, 402.823 293.476 C 400.621 297.889, 396.875 304.425, 394.499 308 C 392.122 311.575, 387 318.171, 383.116 322.658 C 379.233 327.144, 372.330 333.801, 367.777 337.450 C 363.225 341.099, 355.961 346.163, 351.635 348.705 C 347.309 351.246, 339.812 355.032, 334.975 357.117 C 330.138 359.202, 321.929 362.013, 316.732 363.364 C 311.536 364.715, 302.900 366.371, 297.541 367.046 C 291.652 367.787, 282.398 368.058, 274.149 367.730 C 263.049 367.290, 257.979 366.542, 247 363.727 C 239.035 361.684, 229.453 358.371, 223.629 355.644 C 218.200 353.103, 209.965 348.499, 205.328 345.415 C 200.692 342.330, 192.842 335.945, 187.884 331.227 C 182.926 326.509, 175.964 318.791, 172.411 314.075 C 168.859 309.359, 163.531 300.775, 160.571 295 C 157.611 289.225, 153.585 279.694, 151.623 273.820 C 149.662 267.946, 147.418 258.721, 146.637 253.320 C 145.856 247.919, 145.168 244.904, 145.108 246.619 C 145.049 248.334, 145.667 253.564, 146.483 258.240 C 147.298 262.916, 149.363 270.738, 151.072 275.621 C 152.781 280.505, 156.181 288.618, 158.630 293.651 C 161.078 298.684, 165.976 306.849, 169.515 311.796 C 173.053 316.742, 179.547 324.432, 183.946 328.884 C 188.344 333.336, 195.669 339.722, 200.222 343.075 C 204.775 346.427, 213.900 351.817, 220.500 355.052 C 227.100 358.287, 236.479 362.071, 241.341 363.461 C 246.204 364.851, 254.511 366.726, 259.802 367.628 C 267.229 368.894, 273.075 369.138, 285.460 368.700 C 297.445 368.276, 304.154 367.509, 312 365.664 C 317.775 364.306, 325.545 362.044, 329.267 360.636 C 332.989 359.228, 339.650 356.253, 344.070 354.025 C 348.489 351.797, 355.344 347.858, 359.302 345.272 C 363.261 342.687, 371.492 335.605, 377.594 329.536 C 384.900 322.269, 390.947 315.075, 395.301 308.470 C 398.938 302.954, 403.517 294.921, 405.477 290.620 C 407.437 286.319, 410.330 278.458, 411.907 273.150 C 413.483 267.843, 415.569 259, 416.542 253.500 C 417.807 246.348, 418.295 238.516, 418.256 226 C 418.217 213.705, 417.708 206.170, 416.543 200.666 C 415.630 196.357, 413.525 188.932, 411.864 184.166 C 410.203 179.400, 407.102 171.900, 404.972 167.500 C 402.843 163.100, 398.286 155.225, 394.845 150 C 391.082 144.285, 384.587 136.501, 378.545 130.465 C 372.805 124.730, 364.485 117.751, 359.132 114.179 C 353.979 110.742, 345.654 105.941, 340.632 103.510 C 335.609 101.078, 327.362 97.712, 322.303 96.028 C 317.245 94.345, 308.695 92.302, 303.303 91.489 C 297.912 90.677, 287.425 90.051, 280 90.099 C 272.575 90.147, 262.675 90.853, 258 91.667 M 210 109.598 C 205.875 112.102, 200.025 115.991, 197 118.240 C 193.975 120.488, 187.740 126.192, 183.144 130.914 C 178.548 135.636, 172.309 143.017, 169.279 147.315 C 166.249 151.614, 161.610 159.374, 158.969 164.560 C 156.329 169.747, 152.802 178.155, 151.132 183.245 C 149.462 188.335, 147.399 195.969, 146.548 200.208 C 145.697 204.447, 145.046 209.172, 145.102 210.708 C 145.158 212.244, 145.812 209.900, 146.555 205.500 C 147.299 201.100, 149.041 193.599, 150.426 188.830 C 151.811 184.062, 154.673 176.151, 156.786 171.251 C 158.899 166.350, 163.614 157.783, 167.264 152.211 C 170.915 146.640, 177.411 138.399, 181.701 133.899 C 185.990 129.398, 192.425 123.387, 196 120.541 C 199.575 117.695, 206.306 113.034, 210.958 110.183 C 215.610 107.332, 218.985 105.010, 218.458 105.022 C 217.931 105.034, 214.125 107.093, 210 109.598 M 266.500 114.116 C 263.200 114.595, 256.960 115.882, 252.634 116.975 C 248.308 118.068, 241.150 120.527, 236.727 122.439 C 232.304 124.351, 225.146 128.055, 220.821 130.670 C 216.495 133.285, 209.851 138.258, 206.057 141.722 C 202.262 145.185, 196.261 151.502, 192.721 155.759 C 189.181 160.017, 184.188 167.122, 181.624 171.549 C 179.061 175.976, 175.420 183.917, 173.534 189.195 C 171.647 194.473, 169.354 202.776, 168.437 207.646 C 167.138 214.548, 166.881 220.138, 167.272 233 C 167.680 246.469, 168.253 251.337, 170.390 259.500 C 171.865 265.134, 175.367 274.317, 178.412 280.532 C 181.483 286.803, 186.815 295.436, 190.763 300.532 C 194.585 305.465, 199.941 311.575, 202.665 314.112 C 205.389 316.648, 210.486 320.834, 213.990 323.414 C 217.495 325.994, 223.214 329.700, 226.701 331.649 C 230.187 333.599, 237.241 336.696, 242.377 338.531 C 247.512 340.367, 255.428 342.573, 259.968 343.434 C 265.354 344.456, 272.959 344.939, 281.860 344.824 L 295.500 344.649 279 343.991 C 269.084 343.596, 259.721 342.655, 255.536 341.632 C 251.705 340.695, 244.505 338.305, 239.536 336.319 C 234.566 334.333, 227.575 330.937, 224 328.773 C 220.425 326.608, 215.057 322.962, 212.072 320.669 C 209.086 318.376, 204.034 313.878, 200.844 310.674 C 197.655 307.469, 192.780 301.844, 190.012 298.174 C 187.244 294.503, 182.737 287, 179.997 281.500 C 177.258 276, 173.940 267.885, 172.625 263.466 C 171.311 259.047, 169.669 251.291, 168.977 246.229 C 168.187 240.449, 167.924 231.905, 168.270 223.262 C 168.677 213.089, 169.497 206.892, 171.414 199.500 C 172.936 193.632, 176.258 184.955, 179.455 178.500 C 182.450 172.450, 187.286 164.360, 190.201 160.522 C 193.115 156.684, 198.534 150.522, 202.242 146.828 C 205.950 143.135, 211.800 138.127, 215.242 135.699 C 218.684 133.272, 224.425 129.686, 228 127.731 C 231.575 125.775, 238.325 122.838, 243 121.204 C 247.675 119.570, 255.325 117.417, 260 116.419 C 265.842 115.173, 272.722 114.609, 282 114.615 C 292.556 114.622, 297.450 115.107, 304.445 116.840 C 309.364 118.058, 317.448 120.679, 322.409 122.663 C 327.369 124.648, 334.523 128.123, 338.307 130.386 C 342.091 132.649, 348.734 137.336, 353.069 140.801 C 357.405 144.267, 364.469 151.316, 368.767 156.466 C 373.461 162.089, 378.616 169.757, 381.673 175.664 C 384.472 181.074, 387.912 189.100, 389.317 193.500 C 390.723 197.900, 392.452 204.200, 393.160 207.500 C 393.914 211.009, 394.452 220.349, 394.458 230 C 394.465 242.718, 394.662 245.239, 395.316 241 C 395.783 237.975, 395.935 230.325, 395.655 224 C 395.375 217.675, 394.460 209.350, 393.621 205.500 C 392.782 201.650, 391.148 195.643, 389.991 192.151 C 388.834 188.659, 386.805 183.354, 385.482 180.363 C 384.159 177.371, 380.554 171.054, 377.470 166.324 C 374.387 161.593, 367.508 153.337, 362.182 147.976 C 356.534 142.290, 348.958 135.942, 344 132.740 C 339.325 129.721, 333.684 126.334, 331.465 125.215 C 329.245 124.095, 322.761 121.554, 317.056 119.568 C 311.351 117.582, 302.592 115.294, 297.592 114.483 C 292.591 113.672, 284.900 113.061, 280.500 113.126 C 276.100 113.191, 269.800 113.636, 266.500 114.116 M 270.500 135.892 C 268.300 136.226, 273.475 136.501, 282 136.502 C 291.456 136.503, 295.550 136.245, 292.500 135.840 C 289.750 135.474, 284.575 135.200, 281 135.230 C 277.425 135.259, 272.700 135.557, 270.500 135.892 M 255 139.050 C 251.425 140.093, 244.344 143, 239.264 145.510 C 234.184 148.020, 226.759 152.713, 222.764 155.938 C 218.769 159.163, 213.455 164.209, 210.955 167.151 C 208.456 170.093, 205.407 173.935, 204.181 175.688 C 202.955 177.442, 200.161 182.503, 197.973 186.935 C 195.784 191.367, 192.786 198.932, 191.311 203.746 C 188.857 211.755, 188.631 213.905, 188.652 229 C 188.674 243.962, 188.924 246.316, 191.335 254.254 C 192.797 259.068, 195.806 266.678, 198.022 271.165 C 200.238 275.652, 204.310 282.372, 207.072 286.098 C 209.835 289.824, 214.886 295.457, 218.297 298.616 C 221.709 301.776, 227.552 306.336, 231.282 308.750 C 235.012 311.164, 240.637 314.282, 243.782 315.679 C 246.927 317.077, 253.720 319.296, 258.878 320.610 C 266.265 322.492, 270.870 323, 280.563 323 C 287.610 323, 295.886 322.365, 299.927 321.515 C 303.809 320.699, 310.476 318.683, 314.743 317.037 C 319.009 315.390, 326.550 311.414, 331.500 308.201 C 336.450 304.988, 343.091 299.979, 346.258 297.071 C 349.426 294.163, 354.634 287.871, 357.834 283.088 C 361.033 278.305, 365.098 270.915, 366.867 266.665 C 368.636 262.415, 371.053 255.239, 372.237 250.719 C 373.983 244.054, 374.379 239.759, 374.335 228 C 374.291 216.454, 373.842 211.870, 372.134 205.500 C 370.955 201.100, 368.030 193.450, 365.636 188.500 C 363.242 183.550, 359.197 176.741, 356.646 173.369 C 354.096 169.997, 348.998 164.421, 345.316 160.977 C 341.635 157.533, 335.543 152.724, 331.779 150.289 C 328.015 147.854, 322.363 144.707, 319.218 143.297 C 316.073 141.886, 310.800 139.895, 307.500 138.873 C 304.200 137.851, 300.600 137.036, 299.500 137.061 C 298.400 137.086, 301.325 138.235, 306 139.614 C 310.675 140.994, 318.223 143.983, 322.773 146.256 C 327.323 148.530, 334.532 153.146, 338.791 156.514 C 343.051 159.882, 348.623 165.082, 351.174 168.069 C 353.725 171.056, 357.886 176.866, 360.422 180.980 C 362.957 185.094, 366.391 191.983, 368.051 196.289 C 369.712 200.595, 371.773 208.704, 372.631 214.309 C 373.642 220.912, 373.990 227.518, 373.619 233.073 C 373.304 237.788, 372.364 244.891, 371.530 248.857 C 370.696 252.823, 368.560 259.744, 366.785 264.238 C 365.009 268.732, 361.240 275.969, 358.409 280.321 C 355.579 284.672, 350.391 291.144, 346.881 294.702 C 343.372 298.261, 337.490 303.175, 333.811 305.622 C 330.132 308.070, 323.382 311.820, 318.811 313.955 C 314.240 316.090, 307.575 318.654, 304 319.652 C 298.939 321.064, 293.846 321.469, 281 321.481 C 266.676 321.494, 263.480 321.194, 256.767 319.201 C 252.514 317.938, 246.664 315.848, 243.767 314.556 C 240.870 313.264, 235.101 309.977, 230.947 307.252 C 226.793 304.527, 220.910 299.868, 217.873 296.899 C 214.836 293.930, 210.198 288.575, 207.567 285 C 204.936 281.425, 201.315 275.575, 199.522 272 C 197.729 268.425, 195.112 262.125, 193.706 258 C 192.301 253.875, 190.604 246.708, 189.935 242.074 C 189.212 237.067, 188.959 229.562, 189.312 223.574 C 189.638 218.033, 190.829 209.900, 191.958 205.500 C 193.087 201.100, 196.004 193.358, 198.440 188.295 C 200.877 183.233, 204.635 176.708, 206.792 173.795 C 208.949 170.883, 214.127 165.264, 218.298 161.309 C 222.469 157.354, 229.396 152.059, 233.691 149.542 C 237.986 147.025, 243.975 144.032, 247 142.891 C 250.025 141.750, 255.650 139.997, 259.500 138.994 C 263.350 137.992, 265.375 137.167, 264 137.162 C 262.625 137.157, 258.575 138.006, 255 139.050 M 446.259 153.429 C 448.327 154.167, 450.648 155.293, 451.417 155.931 C 452.186 156.570, 453.532 158.602, 454.408 160.447 C 455.560 162.875, 456 166.801, 456 174.651 C 456 180.618, 456.653 188.911, 457.451 193.081 C 458.249 197.250, 459.457 206.587, 460.135 213.829 C 461.116 224.302, 461.113 230.013, 460.120 241.748 C 459.434 249.861, 458.004 261, 456.942 266.500 C 455.881 272, 453.891 280.100, 452.521 284.500 C 451.151 288.900, 450.056 292.950, 450.088 293.500 C 450.120 294.050, 451.028 292.025, 452.107 289 C 453.185 285.975, 454.926 280.125, 455.976 276 C 457.026 271.875, 458.683 263.325, 459.658 257 C 460.904 248.917, 461.411 240.003, 461.366 227 C 461.316 212.624, 460.822 205.858, 459.151 196.651 C 457.827 189.360, 456.999 180.704, 456.998 174.151 C 456.997 166.007, 456.585 162.681, 455.248 160.020 C 454.287 158.106, 451.971 155.518, 450.102 154.270 C 448.233 153.021, 445.758 152.020, 444.602 152.044 C 443.228 152.073, 443.802 152.552, 446.259 153.429 M 265.500 160.570 C 261.650 161.416, 254.373 164.102, 249.328 166.539 C 242.208 169.978, 238.500 172.594, 232.752 178.234 C 228.679 182.230, 223.675 188.291, 221.630 191.702 C 219.586 195.113, 216.807 201.156, 215.455 205.131 C 214.103 209.106, 212.524 216.253, 211.945 221.014 C 211.119 227.805, 211.202 231.590, 212.329 238.585 C 213.119 243.488, 215.086 250.900, 216.700 255.056 C 218.314 259.211, 221.330 265.164, 223.401 268.285 C 225.472 271.405, 230.493 277.065, 234.559 280.862 C 239.662 285.627, 244.513 289.004, 250.226 291.766 C 254.776 293.966, 261.425 296.556, 265 297.521 C 269.003 298.601, 275.149 299.284, 281 299.297 C 286.225 299.310, 293.153 298.753, 296.395 298.059 C 300.706 297.137, 301.916 296.539, 300.895 295.833 C 299.893 295.141, 300.137 295.048, 301.758 295.504 C 303.183 295.905, 306.011 295.226, 309.426 293.663 C 312.402 292.300, 317.461 289.384, 320.668 287.182 C 323.876 284.980, 329.250 280.326, 332.612 276.839 C 335.974 273.353, 340.335 267.800, 342.304 264.500 C 344.273 261.200, 346.821 255.671, 347.965 252.212 C 349.110 248.754, 350.559 241.231, 351.186 235.493 C 352.164 226.531, 352.084 223.824, 350.618 216.281 C 349.511 210.587, 347.331 204.236, 344.416 198.215 C 340.723 190.585, 338.458 187.467, 331.703 180.715 C 327.183 176.197, 320.906 170.986, 317.754 169.135 C 314.602 167.284, 308.080 164.409, 303.261 162.745 C 296.046 160.255, 292.559 159.661, 283.500 159.377 C 276.114 159.146, 270.200 159.538, 265.500 160.570 M 266.667 161.562 C 262.908 162.405, 257.508 164.010, 254.667 165.129 C 251.825 166.248, 246.975 168.697, 243.888 170.570 C 240.801 172.444, 235.176 177.248, 231.388 181.245 C 227.600 185.242, 223.017 191.311, 221.205 194.731 C 219.393 198.151, 216.984 203.548, 215.854 206.725 C 214.396 210.819, 213.644 216.028, 213.269 224.617 C 212.862 233.938, 213.135 238.511, 214.452 244.430 C 215.394 248.662, 218.123 256.038, 220.517 260.820 C 223.038 265.855, 227.268 272.165, 230.565 275.809 C 233.698 279.270, 238.789 283.791, 241.880 285.855 C 244.971 287.919, 250.200 290.787, 253.500 292.228 C 256.800 293.670, 262.200 295.514, 265.500 296.326 C 268.800 297.138, 274.200 298.032, 277.500 298.312 C 280.800 298.593, 285.975 298.476, 289 298.052 L 294.500 297.282 288 297.135 C 284.425 297.055, 279.721 296.495, 277.547 295.891 C 275.373 295.288, 272.110 293.310, 270.297 291.497 C 268.484 289.684, 267 287.255, 267 286.100 C 267 284.945, 267.935 283.065, 269.077 281.923 C 270.388 280.612, 271.772 280.096, 272.827 280.525 C 273.747 280.899, 277.258 281.441, 280.629 281.729 C 284.519 282.063, 289.453 281.654, 294.129 280.610 C 298.183 279.706, 303.786 277.905, 306.580 276.608 C 309.374 275.311, 314.663 271.440, 318.334 268.007 C 323.138 263.513, 325.997 259.762, 328.539 254.619 C 330.505 250.641, 332.800 243.767, 333.717 239.113 C 335.111 232.036, 335.179 229.670, 334.158 223.715 C 333.494 219.844, 332.062 214.668, 330.976 212.212 C 329.889 209.756, 329 206.748, 329 205.528 C 329 204.308, 329.823 202.565, 330.829 201.655 C 331.835 200.745, 333.771 200, 335.133 200 C 336.626 200, 338.831 201.289, 340.692 203.250 C 342.388 205.037, 344.549 208.033, 345.494 209.906 C 346.439 211.779, 347.808 214.929, 348.536 216.906 C 349.489 219.494, 349.879 219.900, 349.930 218.355 C 349.968 217.176, 349.048 213.126, 347.885 209.355 C 346.722 205.585, 344.420 199.800, 342.769 196.500 C 340.706 192.377, 336.753 187.508, 330.134 180.935 C 322.533 173.390, 318.917 170.612, 313 167.776 C 308.875 165.798, 302.800 163.443, 299.500 162.542 C 296.200 161.641, 289 160.708, 283.500 160.467 C 276.694 160.170, 271.318 160.519, 266.667 161.562 M 111.861 164.911 L 109.500 166.821 109.231 200.161 C 108.987 230.419, 109.125 233.816, 110.731 236.916 C 111.704 238.794, 113.625 240.987, 115 241.789 L 117.500 243.246 115.289 241.373 C 114.073 240.343, 112.386 237.827, 111.539 235.782 C 110.269 232.714, 110 226.755, 110 201.681 C 110 182.165, 110.393 170.170, 111.100 168.143 C 111.799 166.138, 113.080 164.767, 114.613 164.382 C 115.940 164.049, 117.670 164.311, 118.457 164.964 C 119.244 165.618, 120.063 167.805, 120.276 169.826 L 120.664 173.500 120.832 169.821 C 120.933 167.616, 120.371 165.514, 119.429 164.571 C 118.564 163.707, 117.039 163, 116.039 163 C 115.040 163, 113.159 163.860, 111.861 164.911 M 128.872 164.652 C 127.807 165.933, 127.388 172.709, 127 194.902 C 126.504 223.288, 126.484 223.502, 124.335 223.808 C 122.917 224.010, 122.007 223.492, 121.701 222.308 C 121.285 220.704, 121.219 220.694, 121.116 222.215 C 121.052 223.158, 121.869 224.395, 122.931 224.963 C 124.388 225.743, 125.246 225.611, 126.431 224.427 C 127.780 223.077, 128 219.010, 128 195.363 C 128 178.323, 128.394 167.133, 129.035 165.934 C 129.698 164.695, 131.127 164, 133.012 164 C 135.014 164, 136.456 164.767, 137.527 166.402 C 138.896 168.490, 139.062 173.178, 138.800 202.347 L 138.500 235.892 135.250 239.243 L 132 242.595 132 284.738 L 132 326.881 137.918 334.191 C 141.173 338.211, 146.910 344.696, 150.668 348.603 C 154.426 352.510, 160.650 358.326, 164.500 361.529 C 168.350 364.731, 175.100 369.697, 179.500 372.565 C 183.900 375.432, 191.775 380.055, 197 382.838 C 202.225 385.621, 211.138 389.734, 216.807 391.978 C 222.476 394.222, 232.423 397.354, 238.911 398.938 C 245.398 400.522, 255.109 402.373, 260.491 403.050 C 266.847 403.850, 276.272 404.075, 287.388 403.692 C 298.814 403.297, 307.716 402.418, 314.179 401.045 C 319.503 399.913, 324.903 398.531, 326.179 397.972 L 328.500 396.957 326 397.385 C 324.625 397.620, 320.350 398.516, 316.500 399.375 C 312.650 400.234, 305.031 401.458, 299.569 402.095 C 293.781 402.770, 283.141 403.036, 274.069 402.732 C 263.802 402.387, 255.095 401.485, 248.500 400.081 C 243 398.911, 235.157 397.018, 231.072 395.874 C 226.986 394.731, 218.285 391.532, 211.736 388.767 C 205.187 386.001, 194.579 380.586, 188.164 376.734 C 181.749 372.882, 172.675 366.673, 168 362.937 C 163.325 359.200, 156.073 352.624, 151.884 348.322 C 147.695 344.020, 141.732 337.375, 138.634 333.555 L 133 326.611 133 285.247 L 133 243.883 136.250 239.840 L 139.500 235.798 139.799 202.095 C 140.091 169.038, 140.056 168.341, 137.976 165.697 C 136.573 163.913, 134.905 163, 133.050 163 C 131.507 163, 129.627 163.743, 128.872 164.652 M 436.597 168.560 C 433.923 171.235, 430.376 176.508, 428.022 181.310 C 425.813 185.815, 423.330 192.792, 422.503 196.815 C 421.676 200.839, 421.058 206.239, 421.130 208.815 C 421.240 212.801, 421.385 212.418, 422.103 206.247 C 422.567 202.258, 423.666 196.183, 424.545 192.747 C 425.423 189.311, 427.726 183.575, 429.661 180 C 431.596 176.425, 434.601 172.001, 436.339 170.168 C 438.078 168.335, 440.336 166.381, 441.357 165.825 C 442.552 165.176, 443.560 165.160, 444.180 165.780 C 444.785 166.385, 445.109 192.978, 445.046 236.873 C 444.991 275.443, 445.326 307, 445.791 307 C 446.255 307, 447.427 304.485, 448.396 301.412 C 449.365 298.339, 449.934 295.601, 449.661 295.327 C 449.388 295.054, 448.484 297.006, 447.654 299.665 C 446.285 304.046, 446.194 298.109, 446.686 236.398 C 447.087 186.077, 446.929 167.736, 446.079 166.148 C 445.447 164.967, 444.081 164, 443.044 164 C 442.007 164, 439.106 166.052, 436.597 168.560 M 268 172.086 C 265.525 172.564, 259.794 174.783, 255.264 177.018 C 249.494 179.866, 245.148 182.963, 240.749 187.362 C 237.295 190.816, 232.994 196.411, 231.190 199.795 C 229.386 203.180, 227.067 208.399, 226.037 211.392 C 225.007 214.386, 223.864 219.238, 223.497 222.175 C 222.927 226.742, 223.142 227.911, 224.988 230.257 C 226.301 231.927, 228.113 233, 229.618 233 C 230.978 233, 233.122 231.969, 234.381 230.710 C 235.934 229.157, 236.873 226.717, 237.298 223.132 C 237.642 220.225, 239.009 215.518, 240.335 212.673 C 241.662 209.828, 244.149 205.598, 245.863 203.272 C 247.577 200.947, 251.572 197.008, 254.740 194.517 C 257.908 192.027, 263.425 188.891, 267 187.547 C 270.575 186.203, 275.694 184.819, 278.376 184.472 C 281.568 184.058, 284.071 183.020, 285.626 181.465 C 286.932 180.159, 288 178.375, 288 177.500 C 288 176.625, 286.895 174.805, 285.545 173.455 C 283.518 171.427, 282.170 171.019, 277.795 171.110 C 274.883 171.170, 270.475 171.609, 268 172.086 M 266.634 173.586 C 263.408 174.367, 258.008 176.454, 254.634 178.223 C 251.165 180.042, 245.354 184.550, 241.258 188.598 C 235.899 193.896, 233.102 197.683, 230.499 203.164 C 228.565 207.238, 226.286 213.910, 225.435 217.992 C 224.583 222.074, 224.143 226.433, 224.455 227.678 C 224.768 228.923, 225.960 230.444, 227.105 231.056 C 228.250 231.669, 230.220 231.911, 231.483 231.594 C 232.746 231.277, 234.101 230.226, 234.494 229.259 C 234.887 228.291, 235.815 224.679, 236.556 221.230 C 237.297 217.782, 239.309 212.324, 241.027 209.101 C 242.745 205.878, 246.645 200.746, 249.694 197.697 C 252.976 194.415, 258.147 190.688, 262.369 188.560 C 266.291 186.585, 272.602 184.413, 276.394 183.734 C 282.037 182.724, 283.670 181.986, 285.394 179.669 L 287.500 176.837 284.694 174.419 C 282.541 172.562, 280.797 172.019, 277.194 172.083 C 274.612 172.129, 269.860 172.806, 266.634 173.586 M 120.286 179.500 C 120.294 182.250, 120.488 183.256, 120.718 181.736 C 120.947 180.216, 120.941 177.966, 120.704 176.736 C 120.467 175.506, 120.279 176.750, 120.286 179.500 M 482.391 195 C 482.748 197.475, 483.477 203.325, 484.012 208 C 484.547 212.675, 484.988 221.764, 484.992 228.199 C 484.997 234.633, 484.310 245.165, 483.466 251.603 C 482.622 258.040, 480.853 267.851, 479.536 273.404 C 478.219 278.957, 475.713 287.550, 473.969 292.500 C 472.224 297.450, 469.308 304.739, 467.488 308.697 C 465.668 312.655, 461.711 320.080, 458.693 325.197 C 455.676 330.314, 450.182 338.550, 446.485 343.500 C 442.787 348.450, 437.003 355.618, 433.631 359.428 C 430.259 363.239, 423 370.357, 417.500 375.246 C 412 380.136, 403 387.184, 397.500 390.909 C 392 394.635, 384.667 399.327, 381.204 401.337 C 377.741 403.347, 370.292 407.001, 364.650 409.458 C 359.009 411.914, 349.692 415.484, 343.947 417.390 C 338.201 419.297, 327.875 421.999, 321 423.395 C 314.125 424.790, 303.550 426.397, 297.500 426.965 C 291.450 427.533, 282.225 428.089, 277 428.200 L 267.500 428.402 275.500 428.763 C 279.900 428.962, 289.350 428.641, 296.500 428.051 C 303.650 427.461, 314.756 425.886, 321.181 424.551 C 327.605 423.216, 335.705 421.228, 339.181 420.134 C 342.656 419.041, 349.325 416.752, 354 415.049 C 358.675 413.346, 367 409.746, 372.500 407.048 C 378 404.351, 387.225 399.038, 393 395.243 C 398.775 391.447, 406.650 385.762, 410.500 382.610 C 414.350 379.457, 421.677 372.759, 426.783 367.725 C 431.889 362.691, 439.568 354.056, 443.848 348.536 C 448.128 343.016, 453.775 335.125, 456.396 331 C 459.017 326.875, 463.797 318.100, 467.019 311.500 C 470.240 304.900, 474.246 295.225, 475.922 290 C 477.597 284.775, 479.904 276.511, 481.049 271.636 C 482.193 266.761, 483.766 257.986, 484.545 252.136 C 485.324 246.286, 485.970 235.396, 485.980 227.936 C 485.991 220.476, 485.326 209.265, 484.503 203.023 C 483.680 196.780, 482.722 191.409, 482.375 191.086 C 482.028 190.764, 482.035 192.525, 482.391 195 M 144.400 228.500 C 144.401 236.750, 144.556 239.992, 144.744 235.704 C 144.932 231.417, 144.931 224.667, 144.742 220.704 C 144.552 216.742, 144.399 220.250, 144.400 228.500 M 421.136 226.072 C 421.061 227.486, 421.695 230.684, 422.545 233.178 C 423.395 235.672, 425.420 238.986, 427.045 240.543 L 430 243.374 430 283.589 L 430 323.804 423.132 332.652 C 419.355 337.518, 411.367 346.246, 405.382 352.048 C 399.397 357.849, 390.225 365.549, 385 369.160 C 379.775 372.771, 371.872 377.803, 367.437 380.342 C 363.003 382.881, 356.028 386.364, 351.937 388.080 C 347.847 389.797, 340.900 392.511, 336.500 394.111 C 332.100 395.711, 329.850 396.754, 331.500 396.430 C 333.150 396.106, 338.775 394.259, 344 392.326 C 349.225 390.392, 357.775 386.537, 363 383.759 C 368.225 380.980, 377.093 375.593, 382.706 371.786 C 388.320 367.980, 396.645 361.599, 401.206 357.608 C 405.768 353.616, 412.225 347.234, 415.556 343.425 C 418.886 339.616, 423.724 333.772, 426.306 330.438 L 431 324.376 431 283.623 L 431 242.871 428.071 240.406 C 426.415 239.013, 424.482 235.888, 423.625 233.220 C 422.791 230.624, 421.921 227.375, 421.691 226 L 421.272 223.500 421.136 226.072 M 392.107 252.861 C 391.424 256.333, 389.712 262.622, 388.302 266.837 C 386.893 271.052, 383.989 278.055, 381.850 282.401 C 379.711 286.746, 375.961 293.104, 373.517 296.528 C 371.073 299.953, 365.703 306.159, 361.583 310.319 C 357.463 314.479, 350.809 320.201, 346.796 323.033 C 342.783 325.866, 336.350 329.779, 332.500 331.730 C 328.650 333.681, 322.575 336.380, 319 337.727 C 315.425 339.074, 308.675 341.040, 304 342.095 C 296.913 343.695, 296.414 343.921, 301 343.457 C 304.025 343.151, 311.225 341.301, 317 339.345 C 322.775 337.389, 330.425 334.182, 334 332.217 C 337.575 330.252, 342.525 327.293, 345 325.641 C 347.475 323.989, 351.938 320.581, 354.919 318.068 C 357.899 315.556, 363.603 309.771, 367.595 305.214 C 371.586 300.657, 376.943 293.361, 379.499 289.002 C 382.055 284.642, 385.497 277.571, 387.148 273.288 C 388.799 269.004, 391.042 261.751, 392.132 257.170 C 393.221 252.588, 393.941 248.324, 393.731 247.694 C 393.521 247.063, 392.790 249.389, 392.107 252.861" stroke="none" fill="#98a1a8" fill-rule="evenodd"/><path d="M 253 31.509 C 247.775 32.226, 239.225 33.814, 234 35.038 C 228.775 36.262, 220.029 38.815, 214.565 40.711 C 209.100 42.607, 200.475 46.099, 195.397 48.472 C 190.319 50.845, 181.739 55.377, 176.332 58.542 C 170.924 61.707, 162.675 67.036, 158 70.384 C 153.325 73.733, 143.930 81.879, 137.122 88.486 C 130.314 95.094, 121.934 104.100, 118.499 108.500 C 115.065 112.900, 109.790 120.325, 106.777 125 C 103.765 129.675, 99.743 136.425, 97.840 140 C 95.938 143.575, 92.555 150.775, 90.323 156 C 88.091 161.225, 85.121 169.550, 83.723 174.500 C 82.324 179.450, 80.412 187.100, 79.474 191.500 C 78.337 196.827, 77.598 206.231, 77.260 219.643 C 76.949 231.995, 77.201 243.590, 77.913 249.624 C 78.551 255.036, 80.206 264.421, 81.589 270.482 C 82.973 276.542, 85.708 286.225, 87.666 292 C 89.625 297.775, 93.134 306.550, 95.463 311.500 C 97.793 316.450, 103.287 325.902, 107.672 332.504 C 112.056 339.106, 119.044 348.556, 123.200 353.504 C 127.356 358.452, 134.749 366.333, 139.628 371.019 C 144.508 375.704, 151.304 381.686, 154.730 384.312 C 158.157 386.938, 165.582 392.032, 171.230 395.631 C 176.879 399.230, 186.450 404.563, 192.500 407.481 C 198.550 410.399, 207.550 414.217, 212.500 415.964 C 217.450 417.711, 226.675 420.424, 233 421.992 C 239.325 423.560, 247.813 425.340, 251.862 425.948 C 255.911 426.556, 264.686 427.323, 271.362 427.653 C 278.062 427.984, 289.101 427.736, 296 427.099 C 302.875 426.465, 314.125 424.801, 321 423.402 C 327.875 422.002, 338.201 419.297, 343.947 417.390 C 349.692 415.484, 359.009 411.914, 364.650 409.458 C 370.292 407.001, 377.741 403.347, 381.204 401.337 C 384.667 399.327, 392 394.635, 397.500 390.909 C 403 387.184, 412 380.136, 417.500 375.246 C 423 370.357, 430.259 363.239, 433.631 359.428 C 437.003 355.618, 442.787 348.450, 446.485 343.500 C 450.182 338.550, 455.676 330.314, 458.693 325.197 C 461.711 320.080, 465.668 312.655, 467.488 308.697 C 469.308 304.739, 472.224 297.450, 473.969 292.500 C 475.713 287.550, 478.223 278.940, 479.545 273.366 C 480.867 267.793, 482.685 257.668, 483.586 250.866 C 484.803 241.668, 485.080 234.273, 484.668 222 C 484.362 212.925, 483.424 201.450, 482.583 196.500 C 481.741 191.550, 480.117 183.900, 478.974 179.500 C 477.831 175.100, 475.978 168.800, 474.857 165.500 C 473.736 162.200, 470.235 154.090, 467.077 147.479 C 463.919 140.867, 458.418 130.967, 454.852 125.479 C 451.287 119.990, 444.910 111.348, 440.681 106.272 C 436.453 101.197, 429.282 93.460, 424.746 89.079 C 420.211 84.698, 413.575 78.764, 410 75.891 C 406.425 73.019, 398.775 67.527, 393 63.686 C 387.225 59.846, 376.534 53.817, 369.242 50.289 C 361.950 46.761, 349.999 41.925, 342.684 39.542 C 335.369 37.159, 325.810 34.499, 321.442 33.629 C 317.074 32.760, 309.687 31.588, 305.026 31.024 C 300.366 30.461, 288.891 30.046, 279.526 30.103 C 270.162 30.160, 258.225 30.792, 253 31.509 M 263.768 54.043 C 258.966 54.544, 250.528 55.874, 245.017 56.997 C 239.506 58.120, 230.167 60.621, 224.263 62.555 C 218.358 64.489, 208.875 68.294, 203.189 71.010 C 197.502 73.727, 188.496 78.803, 183.175 82.290 C 177.854 85.778, 169.450 92.031, 164.500 96.186 C 159.550 100.341, 152.284 107.126, 148.354 111.264 C 144.423 115.402, 138.726 122.098, 135.694 126.144 C 132.662 130.190, 127.890 137.287, 125.091 141.915 C 122.291 146.543, 120 150.706, 120 151.165 C 120 151.624, 118.342 152, 116.316 152 C 114.289 152, 110.772 152.900, 108.500 154 C 105.816 155.299, 103.575 157.411, 102.105 160.028 L 99.841 164.055 100.273 209.278 C 100.638 247.337, 100.977 255.666, 102.417 261.859 C 103.358 265.907, 105.252 273.107, 106.626 277.859 C 108 282.612, 110.565 290.065, 112.326 294.421 C 114.087 298.778, 116.106 302.535, 116.814 302.771 C 117.845 303.115, 118.068 297.307, 117.940 273.450 L 117.780 243.700 115.399 241.494 C 114.089 240.280, 112.339 237.662, 111.509 235.676 C 110.276 232.725, 110 226.507, 110 201.681 C 110 182.165, 110.393 170.170, 111.100 168.143 C 111.812 166.101, 113.077 164.768, 114.685 164.364 C 116.226 163.977, 117.703 164.274, 118.575 165.147 C 119.543 166.114, 120.109 169.820, 120.391 177.026 C 120.616 182.787, 120.846 195.697, 120.900 205.715 C 120.993 222.632, 121.138 224.003, 122.931 224.963 C 124.388 225.743, 125.246 225.611, 126.431 224.427 C 127.780 223.077, 128 219.010, 128 195.363 C 128 178.323, 128.394 167.133, 129.035 165.934 C 129.698 164.695, 131.127 164, 133.012 164 C 135.014 164, 136.456 164.767, 137.527 166.402 C 138.896 168.490, 139.062 173.178, 138.800 202.347 L 138.500 235.892 135.250 239.243 L 132 242.595 132 284.738 L 132 326.881 137.918 334.191 C 141.173 338.211, 146.910 344.696, 150.668 348.603 C 154.426 352.510, 160.650 358.326, 164.500 361.529 C 168.350 364.731, 175.100 369.697, 179.500 372.565 C 183.900 375.432, 191.775 380.055, 197 382.838 C 202.225 385.621, 211.138 389.734, 216.807 391.978 C 222.476 394.222, 232.423 397.354, 238.911 398.938 C 245.398 400.522, 255.109 402.373, 260.491 403.050 C 266.847 403.850, 276.272 404.075, 287.388 403.692 C 298.884 403.295, 307.712 402.419, 314.288 401.022 C 319.671 399.879, 329.789 397.076, 336.771 394.794 C 343.753 392.512, 354.515 388.062, 360.687 384.905 C 366.858 381.747, 376.633 375.947, 382.410 372.015 C 388.187 368.082, 396.645 361.599, 401.206 357.608 C 405.768 353.616, 412.225 347.234, 415.556 343.425 C 418.886 339.616, 423.724 333.772, 426.306 330.438 L 431 324.376 431 283.623 L 431 242.871 428.071 240.406 C 426.412 239.011, 424.351 235.676, 423.321 232.720 C 421.935 228.748, 421.537 224.871, 421.655 216.500 C 421.740 210.450, 422.538 201.900, 423.429 197.500 C 424.367 192.865, 426.770 186.038, 429.140 181.271 C 431.691 176.139, 434.872 171.529, 437.593 169.021 C 439.992 166.810, 442.389 165, 442.919 165 C 443.448 165, 444.166 165.460, 444.514 166.022 C 444.861 166.585, 445.101 198.535, 445.046 237.022 C 444.991 275.510, 445.326 307, 445.790 307 C 446.254 307, 448.723 300.137, 451.276 291.750 C 453.830 283.363, 456.364 274.700, 456.909 272.500 C 457.453 270.300, 458.694 263.325, 459.665 257 C 460.902 248.942, 461.411 239.963, 461.366 227 C 461.316 212.624, 460.822 205.858, 459.151 196.651 C 457.827 189.360, 456.999 180.704, 456.998 174.151 C 456.997 166.007, 456.585 162.681, 455.248 160.020 C 454.287 158.106, 451.971 155.518, 450.102 154.270 C 448.233 153.021, 445.754 152, 444.591 152 C 443.023 152, 441.279 150.003, 437.824 144.250 C 435.265 139.988, 430.418 132.810, 427.055 128.301 C 423.692 123.792, 417.517 116.463, 413.333 112.015 C 409.149 107.568, 401.742 100.587, 396.875 96.503 C 392.007 92.419, 384.554 86.736, 380.313 83.874 C 376.072 81.012, 367.820 76.279, 361.975 73.355 C 356.130 70.431, 346.992 66.463, 341.669 64.536 C 336.346 62.609, 327.605 59.930, 322.245 58.584 C 316.885 57.237, 309.043 55.663, 304.817 55.087 C 300.592 54.510, 291.592 53.835, 284.817 53.585 C 278.043 53.336, 268.571 53.542, 263.768 54.043 M 258.500 92.615 C 254.100 93.404, 246.746 95.190, 242.158 96.585 C 237.570 97.979, 229.818 100.880, 224.930 103.031 C 220.043 105.181, 212.997 108.847, 209.272 111.176 C 205.548 113.506, 199.575 117.730, 196 120.564 C 192.425 123.398, 185.990 129.398, 181.701 133.899 C 177.411 138.399, 170.915 146.640, 167.264 152.211 C 163.614 157.783, 158.899 166.350, 156.786 171.251 C 154.673 176.151, 151.818 184.048, 150.441 188.800 C 149.064 193.552, 147.278 201.504, 146.473 206.470 C 145.667 211.437, 145.006 221.222, 145.004 228.216 C 145.002 235.209, 145.704 245.975, 146.563 252.140 C 147.432 258.371, 149.695 268.046, 151.658 273.924 C 153.600 279.741, 157.611 289.225, 160.571 295 C 163.531 300.775, 168.859 309.359, 172.411 314.075 C 175.964 318.791, 182.926 326.509, 187.884 331.227 C 192.842 335.945, 200.692 342.330, 205.328 345.415 C 209.965 348.499, 218.200 353.103, 223.629 355.644 C 229.453 358.371, 239.035 361.684, 247 363.727 C 257.979 366.542, 263.049 367.290, 274.149 367.730 C 282.398 368.058, 291.652 367.787, 297.541 367.046 C 302.900 366.371, 311.536 364.715, 316.732 363.364 C 321.929 362.013, 330.138 359.202, 334.975 357.117 C 339.812 355.032, 347.309 351.246, 351.635 348.705 C 355.961 346.163, 363.225 341.099, 367.777 337.450 C 372.330 333.801, 379.233 327.144, 383.116 322.658 C 387 318.171, 392.122 311.575, 394.499 308 C 396.875 304.425, 400.621 297.889, 402.823 293.476 C 405.025 289.062, 407.736 282.751, 408.848 279.451 C 409.960 276.151, 411.792 269.862, 412.920 265.475 C 414.047 261.089, 415.418 254.350, 415.965 250.500 C 416.513 246.650, 416.969 235.777, 416.980 226.338 C 416.993 215.506, 416.471 206.413, 415.567 201.684 C 414.778 197.564, 412.749 190.061, 411.057 185.012 C 409.366 179.963, 405.915 171.707, 403.388 166.666 C 400.862 161.625, 395.940 153.403, 392.451 148.396 C 388.961 143.389, 382.688 135.863, 378.510 131.671 C 374.332 127.480, 368.345 122.088, 365.207 119.690 C 362.068 117.292, 355.675 113.010, 351 110.174 C 346.325 107.337, 338.028 103.194, 332.563 100.967 C 327.098 98.739, 319.223 96.042, 315.063 94.974 C 310.903 93.905, 304.350 92.582, 300.500 92.035 C 296.650 91.487, 287.425 91.071, 280 91.110 C 272.575 91.148, 262.900 91.825, 258.500 92.615 M 266.500 114.116 C 263.200 114.595, 256.960 115.882, 252.634 116.975 C 248.308 118.068, 241.150 120.527, 236.727 122.439 C 232.304 124.351, 225.146 128.055, 220.821 130.670 C 216.495 133.285, 209.851 138.258, 206.057 141.722 C 202.262 145.185, 196.261 151.502, 192.721 155.759 C 189.181 160.017, 184.188 167.122, 181.624 171.549 C 179.061 175.976, 175.420 183.917, 173.534 189.195 C 171.647 194.473, 169.354 202.776, 168.437 207.646 C 167.138 214.548, 166.881 220.138, 167.272 233 C 167.680 246.469, 168.253 251.337, 170.390 259.500 C 171.865 265.134, 175.367 274.317, 178.412 280.532 C 181.483 286.803, 186.815 295.436, 190.763 300.532 C 194.585 305.465, 199.941 311.575, 202.665 314.112 C 205.389 316.648, 210.486 320.834, 213.990 323.414 C 217.495 325.994, 223.214 329.700, 226.701 331.649 C 230.187 333.599, 237.241 336.696, 242.377 338.531 C 247.512 340.367, 255.428 342.573, 259.968 343.434 C 264.643 344.321, 273.536 345, 280.479 345 C 287.222 345, 296.591 344.328, 301.301 343.507 C 306.010 342.686, 314.092 340.483, 319.260 338.612 C 324.429 336.741, 331.322 333.730, 334.579 331.922 C 337.835 330.113, 342.525 327.284, 345 325.635 C 347.475 323.986, 351.938 320.581, 354.919 318.068 C 357.899 315.556, 363.603 309.771, 367.595 305.214 C 371.586 300.657, 376.971 293.314, 379.561 288.896 C 382.151 284.478, 385.740 276.957, 387.536 272.182 C 389.333 267.407, 391.859 258.775, 393.151 253 C 395.040 244.556, 395.493 239.661, 395.466 228 C 395.447 220.025, 394.855 210.800, 394.150 207.500 C 393.445 204.200, 391.763 198.004, 390.413 193.732 C 389.063 189.459, 386.860 183.479, 385.517 180.444 C 384.175 177.408, 380.554 171.054, 377.470 166.324 C 374.387 161.593, 367.508 153.337, 362.182 147.976 C 356.534 142.290, 348.958 135.942, 344 132.740 C 339.325 129.721, 333.684 126.334, 331.465 125.215 C 329.245 124.095, 322.761 121.554, 317.056 119.568 C 311.351 117.582, 302.592 115.294, 297.592 114.483 C 292.591 113.672, 284.900 113.061, 280.500 113.126 C 276.100 113.191, 269.800 113.636, 266.500 114.116 M 270 136.923 C 266.975 137.361, 261.800 138.420, 258.500 139.277 C 255.200 140.134, 250.025 141.765, 247 142.900 C 243.975 144.036, 237.986 147.025, 233.691 149.542 C 229.396 152.059, 222.469 157.354, 218.298 161.309 C 214.127 165.264, 208.949 170.883, 206.792 173.795 C 204.635 176.708, 200.877 183.233, 198.440 188.295 C 196.004 193.358, 193.087 201.100, 191.958 205.500 C 190.829 209.900, 189.638 218.033, 189.312 223.574 C 188.959 229.562, 189.212 237.067, 189.935 242.074 C 190.604 246.708, 192.301 253.875, 193.706 258 C 195.112 262.125, 197.729 268.425, 199.522 272 C 201.315 275.575, 204.936 281.425, 207.567 285 C 210.198 288.575, 214.836 293.930, 217.873 296.899 C 220.910 299.868, 226.793 304.527, 230.947 307.252 C 235.101 309.977, 240.870 313.264, 243.767 314.556 C 246.664 315.848, 252.514 317.938, 256.767 319.201 C 263.480 321.194, 266.676 321.494, 281 321.481 C 293.846 321.469, 298.939 321.064, 304 319.652 C 307.575 318.654, 314.240 316.090, 318.811 313.955 C 323.382 311.820, 330.132 308.070, 333.811 305.622 C 337.490 303.175, 343.372 298.261, 346.881 294.702 C 350.391 291.144, 355.579 284.672, 358.409 280.321 C 361.240 275.969, 365.009 268.732, 366.785 264.238 C 368.560 259.744, 370.696 252.823, 371.530 248.857 C 372.364 244.891, 373.304 237.788, 373.619 233.073 C 373.990 227.518, 373.642 220.912, 372.631 214.309 C 371.773 208.704, 369.712 200.595, 368.051 196.289 C 366.391 191.983, 362.957 185.094, 360.422 180.980 C 357.886 176.866, 353.725 171.056, 351.174 168.069 C 348.623 165.082, 343.051 159.882, 338.791 156.514 C 334.532 153.146, 327.323 148.530, 322.773 146.258 C 318.223 143.985, 310.534 140.979, 305.686 139.577 C 299.615 137.821, 293.546 136.888, 286.186 136.577 C 280.309 136.330, 273.025 136.485, 270 136.923 M 265.500 160.570 C 261.650 161.416, 254.373 164.102, 249.328 166.539 C 242.208 169.978, 238.500 172.594, 232.752 178.234 C 228.679 182.230, 223.675 188.291, 221.630 191.702 C 219.586 195.113, 216.807 201.156, 215.455 205.131 C 214.103 209.106, 212.524 216.253, 211.945 221.014 C 211.119 227.805, 211.202 231.590, 212.329 238.585 C 213.119 243.488, 215.086 250.900, 216.700 255.056 C 218.314 259.211, 221.313 265.138, 223.363 268.227 C 225.413 271.316, 230.183 276.761, 233.964 280.327 C 237.744 283.893, 243.686 288.392, 247.169 290.323 C 250.651 292.255, 256.425 294.792, 260 295.961 C 263.575 297.129, 269.857 298.517, 273.960 299.045 C 278.887 299.678, 284.251 299.652, 289.758 298.968 C 294.345 298.398, 300.997 296.879, 304.540 295.593 C 308.084 294.307, 313.551 291.735, 316.689 289.877 C 319.827 288.020, 325.869 283.213, 330.116 279.195 C 334.491 275.056, 339.575 268.990, 341.850 265.195 C 344.057 261.513, 346.804 255.671, 347.955 252.212 C 349.105 248.754, 350.559 241.231, 351.186 235.493 C 352.164 226.531, 352.084 223.824, 350.618 216.281 C 349.511 210.587, 347.331 204.236, 344.416 198.215 C 340.723 190.585, 338.458 187.467, 331.703 180.715 C 327.183 176.197, 320.906 170.986, 317.754 169.135 C 314.602 167.284, 308.080 164.409, 303.261 162.745 C 296.046 160.255, 292.559 159.661, 283.500 159.377 C 276.114 159.146, 270.200 159.538, 265.500 160.570 M 266.634 173.586 C 263.408 174.367, 258.008 176.454, 254.634 178.223 C 251.165 180.042, 245.354 184.550, 241.258 188.598 C 235.899 193.896, 233.102 197.683, 230.499 203.164 C 228.565 207.238, 226.286 213.910, 225.435 217.992 C 224.583 222.074, 224.143 226.433, 224.455 227.678 C 224.768 228.923, 225.960 230.444, 227.105 231.056 C 228.250 231.669, 230.220 231.911, 231.483 231.594 C 232.746 231.277, 234.101 230.226, 234.494 229.259 C 234.887 228.291, 235.815 224.679, 236.556 221.230 C 237.297 217.782, 239.309 212.324, 241.027 209.101 C 242.745 205.878, 246.645 200.746, 249.694 197.697 C 252.976 194.415, 258.147 190.688, 262.369 188.560 C 266.291 186.585, 272.602 184.413, 276.394 183.734 C 282.037 182.724, 283.670 181.986, 285.394 179.669 L 287.500 176.837 284.694 174.419 C 282.541 172.562, 280.797 172.019, 277.194 172.083 C 274.612 172.129, 269.860 172.806, 266.634 173.586" stroke="none" fill="#1f2d33" fill-rule="evenodd"/></svg>