<svg xmlns="http://www.w3.org/2000/svg" xmlns:xlink="http://www.w3.org/1999/xlink" version="1.1" x="0px" y="0px" viewBox="0 0 100 125" style="enable-background:new 0 0 100 100;" xml:space="preserve"><g><path d="M86.7,63.8H84c-1-14-11.7-25.6-25.9-28.8c1.1-1.6,1.8-3.6,1.8-5.7c0-5.5-4.5-10-10-10s-10,4.5-10,10c0,2.1,0.7,4.1,1.8,5.7   C27.7,38.3,17,49.8,16,63.8h-2.6c-1.7,0-3,1.3-3,3s1.3,3,3,3h73.4c1.7,0,3-1.3,3-3S88.3,63.8,86.7,63.8z M50,25.3c2.2,0,4,1.8,4,4   s-1.8,4-4,4s-4-1.8-4-4S47.8,25.3,50,25.3z M50,40.1c14.7,0,26.8,10.5,28,23.8H22C23.2,50.6,35.3,40.1,50,40.1z"/><path d="M86.7,74.7H13.3c-1.7,0-3,1.3-3,3s1.3,3,3,3h73.4c1.7,0,3-1.3,3-3S88.3,74.7,86.7,74.7z"/></g></svg>